<svg id="Layer_1" data-name="Layer 1" xmlns="http://www.w3.org/2000/svg" viewBox="0 0 411 236"><defs><style>.cls-1{fill:#f6a0a7;}</style></defs><title>Have-and-Hold</title><path class="cls-1" d="M39.81,14.93c-11.34,3-12.31,3.36-16.67,6.29-5.47,3.68-7.62,6.09-10.8,12.17C10,38,9.76,38.69,9.54,43.61S9.41,49.09,11,51.94a37.08,37.08,0,0,0,6.74,7.73,56,56,0,0,1,6.19,6.42,16.58,16.58,0,0,0,3.39,3.47c1.68,1.28,3,3.18,5,7.23,3.33,6.72,6.48,10.44,14.23,16.83,3.24,2.67,7.1,6,8.57,7.46,6.95,6.76,18.41,17,19.91,17.75,2.75,1.41,9.09,6,15.34,11a100.66,100.66,0,0,0,11.86,8.08c8,4.47,10.61,6,12.73,7.78a50,50,0,0,0,5.76,3.69,53.26,53.26,0,0,1,6.51,4.31,70.66,70.66,0,0,0,7.38,4.92c2.6,1.52,5.46,3.25,6.28,3.83,2.1,1.46,8.39,3.47,10.88,3.47,3.22,0,5.4-2.08,5.81-5.56l.33-2.78,3.18,3c3.94,3.75,11.48,7.61,14.87,7.61A5.87,5.87,0,0,0,180,166.8c2.1-1.76,2.66-3.18,2.15-5.49-.57-2.59-1.34-2-1,.75.21,1.91,0,2.64-.83,3.39-1.16,1-4.8,1.91-4.8,1.18,0-.22-.75-.43-1.62-.46a15.08,15.08,0,0,1-6.77-2.88c-1.16-.88-1.16-.88.29-2,1.16-.9,1.24-1.13.43-1.13-.58,0-1,.22-1,.52,0,1.32-2.36,1-3.5-.41-.64-.81-1.13-1.23-1.13-1s-.72-.17-1.59-1a44.21,44.21,0,0,0-4.14-3.15c-2.44-1.63-5.38-4.16-11.86-10.19l-2.89-2.69,1.42-1.19c.75-.63,1.17-1.2.9-1.22a3.76,3.76,0,0,0-1.62,1c-1.05.94-1.22.87-3.94-1.85l-2.84-2.84,2-1.36a8,8,0,0,0,2-1.65c0-.35-.75.05-3,1.61-1.62,1.11-1.62,1.11-3,0l-1.42-1.1,2.55-1.83c2.72-2,3.6-3.19,1.16-1.62-4.57,2.94-4.18,2.82-5.79,1.77s-1.91-2-.81-2a5.3,5.3,0,0,0,2.08-1.14c1.94-1.53,1.16-1.52-1.33,0-1.79,1.11-2,1.12-3.39.22a5.89,5.89,0,0,1-1.48-1.16,11.15,11.15,0,0,1,2.29-1.48,7.27,7.27,0,0,0,2.6-2.08c.35-.92-.25-.65-3,1.36a6.41,6.41,0,0,1-2.89,1.33c-1,0-1-.09.09-.87.64-.47,1-1,.72-1.22s-.81,0-1.27.34c-1,.8-1.65.44-4.18-2.22-.71-.75-1.49-1.19-1.78-1-.72.45-2.08-1.14-1.62-1.89.19-.32-.17-.74-.81-.93s-1.16-.58-1.16-.87-.41-.37-.87-.19c-1.79.68-2.16-.54-.58-1.9,2-1.7,1.62-2.39-.41-.79-1.74,1.37-2.19,1.47-2.16.46,0-.41,1.21-1.63,2.65-2.69s2.5-2.07,2.34-2.23c-.37-.37-6.77,4.34-6.77,5,0,.29.67,1,1.48,1.48a58.71,58.71,0,0,1,5.95,5.7c6.16,6.54,7.06,7.35,8.14,7.35a5.71,5.71,0,0,1,2.69,1.79,15.31,15.31,0,0,0,3.15,2.54c1.71.89,2.14,1.25,9.32,7.92a121.81,121.81,0,0,0,9.78,8.15c2.72,1.94,4.56,3.7,4.92,4.72.51,1.42.35,1.83-1.33,3.33-1,.93-2.16,1.55-2.46,1.36s-.55.17-.55.81c0,1.62-1,2-2.14.87-.69-.69-.76-1-.26-1.33s.25-.9-.78-2.11-1.45-1.48-1.45-.67a4,4,0,0,1-1.13,2.26l-1.13,1.22-1.91-1.16c-1-.63-1.84-1.45-1.77-1.79s-.23-.49-.69-.32-1.48-.32-2.29-1.13-1.56-1.32-1.71-1.16-3.32-1.85-6.45-4.34c-.32-.25-2.66-1.8-5.21-3.44s-5.28-3.48-6.08-4.08a36.33,36.33,0,0,0-3.3-2.16c-2.32-1.33-2.34-1.58-.42-3.63a14.8,14.8,0,0,0,2-2.72c.32-.65-.57,0-2,1.53l-2.6,2.69L107,137.86c-1.74-1-4-2.27-5-2.7-1.62-.72-2.3-1.64-1.22-1.64.64,0,5.44-5.79,5.09-6.14-.16-.16-1.6,1-3.24,2.72-3.39,3.45-4.52,3.41-1.77-.06,1-1.27,1.62-2.31,1.37-2.3-.75,0-4.28,3.35-4.28,4a.52.52,0,0,1-.52.58c-.55,0-3.76-2.11-5.67-3.73l-1.27-1.08,2.37-2.81c1.32-1.56,2.24-2.94,2.08-3.1s-1.48.83-2.92,2.2c-2.6,2.46-2.65,2.48-3.91,1.48-.69-.55-1.12-1.26-.93-1.56A.47.47,0,0,0,87,123c-.35-.12-.11-.84.57-1.71,1.67-2.14,1.5-3.34-.25-1.7-1.22,1.14-1.45,1.2-1.45.37a5.24,5.24,0,0,1,1.45-2.55c2.79-3,1.59-3.37-1.36-.41-2.24,2.26-3.06,2.29-1.6.06,1.7-2.6,1-3.06-1.12-.69q-2,2.26-2,1.3c0-.52.18-1,.41-1,.64,0,2.55-3.58,2.14-4-.19-.19-1.32.78-2.46,2.11a11,11,0,0,1-2.58,2.46c-.57,0,1.14-2.72,3-4.75,1.16-1.27,1.27-1.62.55-1.62-.5,0-2,1.22-3.27,2.66s-2.56,2.58-2.81,2.47c-.74-.3-8.22-5.79-10.19-7.47l-1.74-1.48,1.39-1.48c.77-.81,1.95-2.23,2.63-3.15a42.79,42.79,0,0,1,3.41-3.85c1.22-1.22,1.89-2.17,1.53-2.17-.73,0-7.28,6.48-8.66,8.57-1,1.58-1.24,1.45-7.55-4.62L52.43,96l2-2.23c1.08-1.21,3.09-3.36,4.37-4.69s2.08-2.46,1.74-2.46c-1,0-8.28,6.94-8.28,7.87s-.52,1-1.62.3c-.54-.34.32-1.61,3-4.44,2.09-2.2,3.66-4.07,3.53-4.2-.33-.33-7.66,6.14-7.95,7-.12.36-.38.23-.59-.29s.9-2.17,3.91-5.12c2.37-2.32,4.61-4.4,5-4.66s.56-.63.35-.84-1,.17-1.71.89c-1.91,1.82-6.29,4.78-6.6,4.46-.13-.13,1.33-1.76,3.24-3.62a23,23,0,0,0,3.47-3.85c0-.55-1,.22-3.88,2.86a9.74,9.74,0,0,1-2.49,1.89,10.4,10.4,0,0,0-2.55,2.32c-2.86,3.17-2.62,1.68.29-1.79,3.27-3.9,1.93-3.59-1.72.41-1.64,1.79-3,2.89-3,2.46s1.71-2.66,3.82-5,3.44-4.2,3-4.2-2.49,1.74-4.43,3.82-3.69,3.69-3.85,3.54c-.32-.31,3.53-5.37,5.73-7.53,2.41-2.36,1.62-2.39-1.33,0a38.24,38.24,0,0,1-3.65,2.63c-2,1.06,0-1.6,3.13-4.24,3.4-2.87,2.84-3.81-.64-1.06-3.74,3-3.53,1.36.29-2.18,1.91-1.77,3.08-3,2.6-2.72a51.71,51.71,0,0,0-7.4,5.41c-.38.46-.83.73-1,.58s1-1.62,2.52-3.3,2.57-3,2.32-3c-.74,0-6,4.4-7.4,6.14-.91,1.16-1.22,1.31-1.22.58,0-.54,2-3,4.54-5.59s4.34-4.6,4.08-4.6a1.07,1.07,0,0,0-.81.58,1.86,1.86,0,0,1-1.48.58c-.64,0-1.14.32-1.16.72S39.41,71,38,72.11l-2.66,2,1.1-1.88a18.09,18.09,0,0,1,3.82-4c4.1-3.17,3.3-3.44-1-.34-2.08,1.49-3.89,2.57-4.05,2.42s.42-1.1,1.24-2.08,1.37-1.82,1.19-1.82c-.61,0-3.48,2-4.23,2.89-.37.46-.7.71-.71.52,0-.79,3.61-4.8,6.09-6.7,4-3,2.66-2.95-1.74.12-2.14,1.49-4,2.56-4.2,2.39s.93-1.52,2.49-3c2-2,2.32-2.42,1.07-1.65-1,.61-2.43,1.41-3.33,1.85s-1.6,1-1.61,1.19c0,.87-2.93,3.63-3.45,3.3s7.35-8.39,8.22-8.39c.26,0,.46-.26.46-.61s-1.56.49-3.53,1.88c-6,4.23-6.13,4.23-1.79,0,4.51-4.45,5.35-5.72,2.2-3.34a10.66,10.66,0,0,1-2.43,1.53,4.11,4.11,0,0,0-1.48,1c-.58.52-1.2.82-1.36.67C27.81,59.48,31,56,31.77,56a4.52,4.52,0,0,0,2-1.45c.75-.81,1-1.45.67-1.45a.65.65,0,0,0-.67.58.55.55,0,0,1-.58.58c-.69,0-4.26,2.4-4.56,3.07-.1.23-.59.41-1.11.41-.69,0-.54-.41.63-1.62,1.95-2,1.95-2.54,0-1.81l-1.56.59,1.13-1.3A29.56,29.56,0,0,1,30,51.25c.64-.56,1-1,.75-1a12.08,12.08,0,0,0-4.46,2.17c-1.59,1.52-1.92.57-.37-1.05,2-2.12,1.7-2.85-.5-1.12-2.43,1.91-2.54.73-.12-1.27,2.71-2.24,2.37-2.69-.81-1.08s-2.89.4.41-2c1.91-1.41,2.32-2,2.11-3.19s.17-1.74,1.79-2.84c1.16-.78,2.05-1.6,2.05-1.88s-1.27.34-2.89,1.4c-2.66,1.74-3.77,3.32-2.32,3.32.31,0,.58.41.58.87s-.31.87-.67.87a15.46,15.46,0,0,0-3.79,2.35c-3.94,3-4.07,2-.17-1.26C24.3,43.2,25.1,42.08,24,42.08a14.32,14.32,0,0,0-3.24,2.08c-1.5,1.15-2.9,1.9-3.13,1.68s.46-1.08,1.56-1.93c4-3.09,4.41-3.5,4-3.89-.22-.21-1.79.78-3.47,2.17s-3.59,2.93-4.23,3.39c-1.16.84-1.16.84,0-.9,1.26-1.93,1.19-1.87,6.63-6,2.26-1.72,4.11-3.38,4.11-3.68s-.9.13-2,1a9,9,0,0,1-2.52,1.5,15.28,15.28,0,0,0-3.36,2.6A17.08,17.08,0,0,1,15,42.67c-1.06,0,1.45-2.56,5.85-6,2.6-2.06,4.53-3.86,4.34-4-.4-.4-4.57,2.46-9,6.15-1.85,1.56-3.36,2.66-3.36,2.47,0-.45,6.37-6.75,9.84-9.74,1.45-1.25,2.22-2,1.74-1.79A69.82,69.82,0,0,0,14,37.85c-3.5,4.14-3.57,2.84-.22-4.17,2.8-5.85,3-6.05,3.64-4.34.48,1.23.28,1.72-1.34,3.25S12.9,36.31,12.9,37.1A19.89,19.89,0,0,0,16,34.32a69.17,69.17,0,0,1,5.18-4.65c2-1.5,2.72-2.64,1.74-2.64a6.39,6.39,0,0,0-2,1.45c-1.91,1.77-2.54,1.81-3,.17-.25-1,.16-1.85,1.5-3.24,2.67-2.78,6.86-5.45,8.06-5.14.64.17,1-.05,1-.57S29,18.94,29.6,19a3,3,0,0,0,2-.64,4.47,4.47,0,0,1,2.55-.78,4.32,4.32,0,0,0,2.23-.49c.57-.46,2.55-.91,5.73-1.3a5.63,5.63,0,0,0,2-.64A8.14,8.14,0,0,1,47,14.56a13.14,13.14,0,0,0,3-.49c.79-.31,5.67,2.16,10.71,5.42,1,.62,2.78,1.7,4.05,2.4a18.34,18.34,0,0,1,2.6,1.62,19.58,19.58,0,0,0,2.89,1.68c1.46.75,3.88,2.08,5.5,3s3.72,2.11,4.77,2.63,1.88,1.17,1.88,1.48.23.41.58.2a4.38,4.38,0,0,1,2.46.26l4.49,1.45c1.43.46,4.69,1.66,7.23,2.66s5.67,2.12,6.95,2.49a9.93,9.93,0,0,1,2.6,1,104.33,104.33,0,0,0,11.58,4.86,17.5,17.5,0,0,1,3.39,1.59,9.93,9.93,0,0,0,2.89,1.27,8.73,8.73,0,0,1,1.82.41c.48.18,1.91.64,3.18,1a63.79,63.79,0,0,1,15.68,7.78c1.31,1,4.8,4,7.81,6.84,7.23,6.7,8.79,8,9.67,8,.4,0,.69.38.69.9s.22.76.52.58c.75-.46,5.27,1.9,7.58,4A36,36,0,0,0,175,80.33c1.34.85,1.38,1,.64,2.43s-.68,1.71.2,3a9.35,9.35,0,0,0,2.69,2.49c.93.53,1.68,1.21,1.68,1.53s1.33.62,3,.68c3.47.11,3.89.4,2.93,2-.42.69-.63,1.31-.5,1.45.29.29,2.48-2.32,2.88-3.41.15-.41.42-.54.65-.32.69.64-2.6,4.63-3.53,4.28a3.25,3.25,0,0,0-2.23.64c-1.27.86-1.38.86-1.07,0s0-.84-1-.58l-1.36.35,1.3-1.42c.69-.75,1.13-1.59.93-1.79s-1,.38-1.89,1.36c-1.66,1.91-2.37,2.13-2.37.75,0-.63-.57-.23-1.59,1.1-1.24,1.62-1.91,2-3,1.82s-1.19-.14.38.58,2.75.74,6.45.33c5.5-.61,7.44-1.49,9.64-4.35,2.76-3.6,1.24-5.69-7.15-9.83a49.39,49.39,0,0,1-8-5.18,53.5,53.5,0,0,0-7.26-5C163,71,157.65,66.76,150.47,59.89a47.05,47.05,0,0,0-16.32-9.68c-2.26-.73-5.2-1.78-6.66-2.38s-5.21-2.1-8.39-3.37c-7.87-3.12-22.34-9-24.31-9.91-.64-.29-3-1-5.21-1.71a58.88,58.88,0,0,1-11.86-4.74c-2.4-1.5-7-4.23-11.29-6.69-2.25-1.29-6.28-3.65-9.06-5.31-4.46-2.65-5.35-3-8.1-2.92a54.16,54.16,0,0,0-9.46,1.74ZM11.45,43.81c-.22.69-.54,1.14-.69,1s-.11-.87.12-1.56.54-1.14.69-1,.11.87-.12,1.56Zm.78,2.32c-1.5,2-1,3,.73,1.41l1.27-1.12-1.07,1.85c-1.2,2.08-.65,3.44.66,1.62,1.71-2.37,2.66-3.31,3-3,.19.19-.49,1.22-1.5,2.26A6.84,6.84,0,0,0,13.47,52c0,1.47-2.85-2.55-2.87-4.05a4.17,4.17,0,0,1,.92-2.43c1.58-1.76,2.12-1.27.71.64Zm5,4.63c-1.51,1.66-2.25,1.39-.79-.29.7-.81,1.39-1.32,1.55-1.16s-.18.81-.76,1.45ZM21,50.44c0,.16-.23.4-.58.61s-.58.09-.58-.26a.58.58,0,0,1,.58-.61c.35,0,.58.1.58.26Zm-4.46,3.44c.71-.26.85-.06.6.87-.37,1.39-.37,1.39-1.82.13s-1.82-2.41-.52-1.33a1.91,1.91,0,0,0,1.74.33Zm2.14,3.24a.58.58,0,1,1-.58-.58.55.55,0,0,1,.58.58Zm6.25,5.5c1.38,1.5,2.34,2.88,2.14,3.07-.37.37-7.8-6.83-7.82-7.58s3,1.62,5.68,4.51Zm-.34-1.91c-.41.41-.69.45-.69.12,0-.75.71-1.46,1.1-1.09.17.16,0,.57-.41,1Zm6.83,7.06c0,.64-1.09.9-1.44.35-.21-.34,0-.58.54-.58s.9.1.9.23ZM34,72.4c-.2.52-.59.77-.9.58s-.26-.69.12-1.16c.83-1,1.25-.69.78.58Zm1.14,3c-.18.46-.46.73-.62.58s-.11-.58.11-.93c.57-.92.9-.69.51.35ZM38,79.35c-.37,1-1.37,1.32-1.37.46,0-.58,1.28-1.9,1.56-1.62a2,2,0,0,1-.2,1.16Zm2.77-.09c-.56.56-.64.49-.35-.32.21-.58.53-.9.72-.72s0,.64-.38,1Zm-1.66,2.17c-.29,1.1-1.32,1.64-1.32.69a3.81,3.81,0,0,1,1.5-1.85,3,3,0,0,1-.18,1.16Zm1.37,3.3c-.17.16-.61.11-1-.12s-.42-.67.12-1.3c.69-.82.77-.81,1,.12a1.7,1.7,0,0,1-.12,1.3Zm142.58.47c2.89,1.46,4,2.32,3.91,3.09s-.55,1.06-2.69,1c-4.23-.12-8.61-3-7.55-5,.81-1.52,1.76-1.38,6.34.93ZM49,88.81a3.49,3.49,0,0,0-1,1.45c-.21.58-.64,1-1,1s-.2-.64.32-1.45,1.22-1.45,1.59-1.45.48.13.06.43ZM177.3,96.19c-.38.46-1,.71-1.27.52s-.09-.68.49-1.1c1.27-.92,1.74-.57.78.58Zm-55.59,30.68c.42.52.46.87.12.87s-.73-.41-.9-.87-.22-.87-.12-.87a3.17,3.17,0,0,1,.9.87Zm34.93,31.77a4.21,4.21,0,0,1,0,2.14c-.75,3.07-3.4,4.28-5.69,2.61-1-.71-.87-.92,1.5-3.14,2.72-2.54,3.68-2.91,4.19-1.62Zm-10.21,2.58c0,1.39-.21,1.61-1.33,1.4-1.68-.32-1.79-1.08-.23-1.58.64-.2,1.16-.62,1.16-.92s.08-.55.2-.55.2.72.2,1.65Z"/><path class="cls-1" d="M48.2,19.79c-.42.52-.46.87-.12.87s.73-.41.9-.87.22-.87.12-.87a3.17,3.17,0,0,0-.9.87Z"/><path class="cls-1" d="M25.63,21.85c0,.35.25.46.58.26s.58-.45.58-.61-.23-.26-.58-.26a.58.58,0,0,0-.58.61Z"/><path class="cls-1" d="M28,23c-.75.63-1.26,1.28-1.1,1.42s.89-.38,1.64-1.19c1.61-1.72,1.36-1.82-.55-.23Z"/><path class="cls-1" d="M23.32,23.84c0,.46.27.87.58.87s.58-.41.58-.87S24.2,23,23.89,23s-.58.41-.58.87Z"/><path class="cls-1" d="M30.26,24.41c-1,.56-1.14.84-.49.86a2.4,2.4,0,0,0,1.66-.84c.87-1.07.69-1.07-1.17,0Z"/><path class="cls-1" d="M20.42,25.86c-.81.62-1.27,1.28-1,1.49s1.16-.32,2-1.12c1.88-1.74,1.16-2-1-.36Z"/><path class="cls-1" d="M27.16,26.71q-.32.84.55.51c.93-.35,1.14-1.35.29-1.35-.29,0-.66.38-.84.84Z"/><path class="cls-1" d="M45,27c-.2.33-.09.58.26.58a.58.58,0,0,0,.61-.58c0-.35-.1-.58-.26-.58s-.4.23-.61.58Z"/><path class="cls-1" d="M28.51,29.05c-.62.74-.59.82.22.52.52-.19,1-.58,1-.87,0-.74-.34-.64-1.18.35Z"/><path class="cls-1" d="M30.7,30.47c-1,.95-1.74,1.72-1.56,1.74a10,10,0,0,0,2.29-1.71c1.1-1,1.79-1.74,1.56-1.74a9.13,9.13,0,0,0-2.29,1.71Z"/><path class="cls-1" d="M34.89,30.79c0,.46-.3.71-.69.57-.87-.3-4.31,2.41-3.76,3,.23.23.87,0,1.45-.54,2.15-1.95,2.64-.45.57,1.75s-.17,1.39,2.32-1.07c2-2,2.27-2.51,1.68-3.45-.8-1.27-1.57-1.39-1.57-.23Z"/><path class="cls-1" d="M35.18,36.29c-.22.35-.27.77-.11.93.43.43,1.56-.29,1.56-1s-1-.69-1.45.06Z"/><path class="cls-1" d="M26,37.63a6.4,6.4,0,0,0-2.14,1.67c0,.81.87.43,2.89-1.28,2.4-2,2.2-2.13-.75-.39Z"/><path class="cls-1" d="M33.5,37.94c-.26.41-.31.88-.12,1.07.51.51,1.09-.23.83-1-.19-.58-.35-.59-.71,0Z"/><path class="cls-1" d="M36.37,38.57a.64.64,0,1,0,.87-.23.6.6,0,0,0-.87.23Z"/><path class="cls-1" d="M34.31,40.34c-.46.3-.69.64-.52.81s.64.07,1.1-.23.69-.64.52-.81-.64-.07-1.1.23Z"/><path class="cls-1" d="M37.21,41.5a.58.58,0,1,0,.58-.58.55.55,0,0,0-.58.58Z"/><path class="cls-1" d="M57.75,41.5c-.2.33-.09.58.26.58a.58.58,0,0,0,.61-.58c0-.35-.1-.58-.26-.58s-.4.23-.61.58Z"/><path class="cls-1" d="M35.53,42.62c-.46.29-.72.7-.55.87s.66-.09,1.05-.55c.85-1,.71-1.09-.5-.32Z"/><path class="cls-1" d="M41.55,44.39c-.2.33-.09.58.26.58a.58.58,0,0,0,.61-.58c0-.35-.1-.58-.26-.58s-.4.23-.61.58Z"/><path class="cls-1" d="M33,44.77a1.54,1.54,0,0,0-.38,1c0,.35.29.32.69-.09s.56-.82.38-1a.49.49,0,0,0-.69.09Z"/><path class="cls-1" d="M36.29,45c-.61,1,.11,1.17.89.23.43-.52.48-.87.11-.87a1.39,1.39,0,0,0-1,.64Z"/><path class="cls-1" d="M44.73,45.55a.58.58,0,1,0,.58-.58.55.55,0,0,0-.58.58Z"/><path class="cls-1" d="M56.29,45.84c-.62.74-.59.82.22.52.52-.19,1-.58,1-.87,0-.74-.34-.64-1.18.35Z"/><path class="cls-1" d="M38.54,46.24c-.75.36-1.33,1-1.33,1.5,0,.66.35.55,1.45-.47,2-1.89,2-2.06-.12-1Z"/><path class="cls-1" d="M42.42,46.71a.58.58,0,1,0,.58-.58.55.55,0,0,0-.58.58Z"/><path class="cls-1" d="M57.75,47.86c-.2.33-.09.58.26.58a.58.58,0,0,0,.61-.58c0-.35-.1-.58-.26-.58s-.4.23-.61.58Z"/><path class="cls-1" d="M40.39,48.44c.21.35.45.58.61.58s.26-.23.26-.58a.58.58,0,0,0-.61-.58c-.35,0-.46.25-.26.58Z"/><path class="cls-1" d="M43.86,49c-.2.33-.09.58.26.58a.58.58,0,0,0,.61-.58c0-.35-.1-.58-.26-.58s-.4.23-.61.58Z"/><path class="cls-1" d="M105.39,48.85a1.19,1.19,0,0,0,1.1-.06c.18-.18-.17-.32-.75-.29s-.82.16-.35.35Z"/><path class="cls-1" d="M113.61,49.6c-.69.46-.58.58.58.61a7.27,7.27,0,0,1,3.18,1.16,25.73,25.73,0,0,0,3.13,1.73c2.35,1,10,6.64,13.08,9.58a22.39,22.39,0,0,1,3.94,4.92c.66,1.4,2.37,3,5.21,5,4.66,3.23,10.23,8.76,16.12,16,1.32,1.62,5.7,6.25,9.7,10.24,10.24,10.24,11.05,11.14,11.05,12.27,0,.64.25.88.64.64s4.36,3.39,9.58,8.71c6.7,6.83,8.59,9.06,7.55,8.91s-2.34.61-4.43,2.37c-2.6,2.21-2.89,2.63-2,3s1.66-.23,3.39-2.08l2.32-2.49,2.14,1c2.37,1.09,4.51,2.82,4.51,3.64a8.52,8.52,0,0,1-1.45,2.43,7.75,7.75,0,0,0-1.45,2.58.65.65,0,0,1-.58.67c-.94,0-.69,1,.35,1.41a2.49,2.49,0,0,0,2.32-.86c.75-.7,1.61-1.07,2-.85,1.38.85.55-4-1.13-6.7-.91-1.43-9.94-11-20.08-21.33L164,92.55c-.75-.75-.76-.83,0-.61.55.17,1.3-.61,2.21-2.29,1.68-3.13,1.33-3.86-.45-1a6.39,6.39,0,0,1-1.63,2A8.07,8.07,0,0,1,162,89.36c-1.27-1-1.58-1.64-1.27-2.6.53-1.68,1.7-1.68,1.23,0-.37,1.33-.37,1.33.56.17.56-.69.68-1.24.32-1.36a1.25,1.25,0,0,1-.61-1.16c0-.7-.38-.49-1.42.78s-1.42,1.53-1.45.69c0-.58-.27-.89-.58-.69s-.82-.17-1.16-.81a3.46,3.46,0,0,0-1.71-1.5,2.71,2.71,0,0,1-1.45-1.77c-.18-.75-.61-1.42-.9-1.42s-.44-.32-.29-.72-.32-1-1-1.3A6.13,6.13,0,0,1,150,75.36c-.56-1-1.27-1.67-1.65-1.59a3.13,3.13,0,0,1-1.91-1,4.15,4.15,0,0,0-2.05-1.16c-.49,0-.68-.35-.49-.87s0-.81-.38-.72-.63-.14-.55-.55-.2-.56-.67-.39c-.89.33-3.24-1.69-3.31-2.85,0-.38-1.69-2.12-3.72-3.88a21.7,21.7,0,0,1-4-4.17,4.05,4.05,0,0,0-2-1.71c-.93-.4-1.52-1-1.33-1.27s0-.36-.32-.14-1.48-.26-2.46-1.07a6.7,6.7,0,0,0-2.55-1.48,6,6,0,0,1-2.49-1.6c-1.85-1.71-4.93-2.32-6.48-1.29Zm90.87,88.5c0,.69-1.14,1.41-1.56,1s.35-1.5,1-1.5a.49.49,0,0,1,.52.52Z"/><path class="cls-1" d="M38.36,50.21c0,.35.25.46.58.26s.58-.45.58-.61-.23-.26-.58-.26a.58.58,0,0,0-.58.61Z"/><path class="cls-1" d="M58.33,50.18c-.21.35,0,.44.52.24,1-.39,1.17-.82.35-.82a1.11,1.11,0,0,0-.87.58Z"/><path class="cls-1" d="M36,51.94c0,.35.25.46.58.26s.58-.45.58-.61-.23-.26-.58-.26a.58.58,0,0,0-.58.61Z"/><path class="cls-1" d="M30.55,53.07c-.21.35-.12.58.23.58a1.15,1.15,0,0,0,.93-.58c.21-.35.12-.58-.23-.58a1.15,1.15,0,0,0-.93.58Z"/><path class="cls-1" d="M42.42,53.1c0,.35.25.46.58.26s.58-.45.58-.61-.23-.26-.58-.26a.58.58,0,0,0-.58.61Z"/><path class="cls-1" d="M51.1,53.1c0,.35.25.46.58.26s.58-.45.58-.61-.23-.26-.58-.26a.58.58,0,0,0-.58.61Z"/><path class="cls-1" d="M40.39,54.23c-.21.35-.12.58.23.58a1.15,1.15,0,0,0,.93-.58c.21-.35.12-.58-.23-.58a1.15,1.15,0,0,0-.93.58Z"/><path class="cls-1" d="M74.25,54.26c0,.35.25.46.58.26s.58-.45.58-.61-.23-.26-.58-.26a.58.58,0,0,0-.58.61Z"/><path class="cls-1" d="M47,55.4c-.52.34-.59.56-.17.56a1.3,1.3,0,0,0,1.05-.58c.43-.7.22-.7-.88,0Z"/><path class="cls-1" d="M72.8,55.39c-.2.33-.09.58.26.58a.58.58,0,0,0,.61-.58c0-.35-.1-.58-.26-.58s-.4.23-.61.58Z"/><path class="cls-1" d="M135.32,56c-.48.77.51,2,1.38,1.65.35-.12.27-.61-.2-1.24s-.91-.83-1.18-.41Z"/><path class="cls-1" d="M49.07,57.47c-1,.79-1.49,1.38-1.16,1.38.81,0,3.53-2.14,3.18-2.48-.16-.16-1,.32-2,1.11Z"/><path class="cls-1" d="M117.83,56.36c-.81.32-1,1.34-.23,1.34.28,0,.67-.41.84-.87s.26-.84.2-.81l-.81.34Z"/><path class="cls-1" d="M44.73,57.73c0,.35.25.46.58.26s.58-.45.58-.61-.23-.26-.58-.26a.58.58,0,0,0-.58.61Z"/><path class="cls-1" d="M56.29,58c-.62.74-.59.82.22.52.52-.19,1-.58,1-.87,0-.74-.34-.64-1.18.35Z"/><path class="cls-1" d="M139.45,58c.17.46.56.87.84.87s.52-.41.52-.87a.88.88,0,0,0-.84-.87c-.5,0-.71.35-.52.87Z"/><path class="cls-1" d="M85.53,58.28c-.2.33-.09.58.26.58a.58.58,0,0,0,.61-.58c0-.35-.1-.58-.26-.58s-.4.23-.61.58Z"/><path class="cls-1" d="M39,58.83c-.46.29-.72.7-.55.87s.66-.09,1.05-.55c.85-1,.71-1.09-.5-.32Z"/><path class="cls-1" d="M56.89,60.59c-1.74,1.51-1.27,1.95.52.49.75-.61,1.26-1.25,1.1-1.39s-.87.24-1.62.89Z"/><path class="cls-1" d="M64,61.75c.21.5.53,1.3.72,1.88s.55,1,.81,1c.72,0,0-2.19-1-3-.75-.62-.86-.6-.55.11Z"/><path class="cls-1" d="M40.39,63.84c-1,.79-1.49,1.38-1.16,1.38.81,0,3.53-2.14,3.18-2.48-.16-.16-1,.32-2,1.11Z"/><path class="cls-1" d="M149.49,68.12a.58.58,0,1,0,.58-.58.55.55,0,0,0-.58.58Z"/><path class="cls-1" d="M47,68.73c0,.35.25.46.58.26s.58-.45.58-.61-.23-.26-.58-.26a.58.58,0,0,0-.58.61Z"/><path class="cls-1" d="M150.73,71.19c-.81.87-1.15,1.76-.91,2.37.44,1.1,1.16,1.25,1.69.35.19-.33-.06-.58-.58-.58s-.79-.23-.61-.52.81-.39,1.39-.23a1.12,1.12,0,0,0,1.42-.61c.25-.64.1-.8-.49-.58s-.73,0-.49-.61c.48-1.28,0-1.16-1.42.41Z"/><path class="cls-1" d="M75.12,72.25c-1.27,1-2.82,2.14-3.44,2.59s-1,1-.75,1.16,1.13-.36,2-1.19a27.31,27.31,0,0,1,3.5-2.72,7.87,7.87,0,0,0,1.88-1.42c0-.58-1-.07-3.18,1.58Z"/><path class="cls-1" d="M71.93,71.62c0,.35.25.46.58.26s.58-.45.58-.61-.23-.26-.58-.26a.58.58,0,0,0-.58.61Z"/><path class="cls-1" d="M48.78,73.33a.53.53,0,0,0,.55.58,1.13,1.13,0,0,0,.9-.58c.2-.34,0-.58-.55-.58s-.9.24-.9.58Z"/><path class="cls-1" d="M64.41,74.5c-.74.49-.72.57.14.57.58,0,1-.25,1-.58,0-.71-.06-.71-1.16,0Z"/><path class="cls-1" d="M75.2,75.33c-.93.73-1.4,1.46-1.07,1.66.58.36,3.42-2.28,3-2.74-.13-.13-1,.34-1.88,1.07Z"/><path class="cls-1" d="M50.18,75.12c-.61,1,.11,1.17.89.23.43-.52.48-.87.11-.87a1.39,1.39,0,0,0-1,.64Z"/><path class="cls-1" d="M78.94,75.7c-.75.63-1.27,1.26-1.13,1.39s1-.4,2-1.16,1.44-1.39,1.13-1.39a5.25,5.25,0,0,0-2,1.16Z"/><path class="cls-1" d="M53.41,76.25c0,.35.25.46.58.26s.58-.45.58-.61-.23-.26-.58-.26a.58.58,0,0,0-.58.61Z"/><path class="cls-1" d="M81.48,77.07c-2.3,1.89-1.68,1.91.87,0,1.1-.81,1.73-1.45,1.42-1.45a6.84,6.84,0,0,0-2.29,1.43Z"/><path class="cls-1" d="M65.57,76.82c-.52.34-.59.56-.17.56a1.3,1.3,0,0,0,1.05-.58c.43-.7.22-.7-.88,0Z"/><path class="cls-1" d="M162.86,77.15c0,.69.16.82.35.35a1.19,1.19,0,0,0-.06-1.1c-.18-.18-.32.17-.29.75Z"/><path class="cls-1" d="M51.34,77.44c-.61,1,.11,1.17.89.23.43-.52.48-.87.11-.87a1.39,1.39,0,0,0-1,.64Z"/><path class="cls-1" d="M84.09,78c-.81.65-2.08,1.64-2.89,2.26S79.87,81.44,80,81.61s1.82-.86,3.68-2.26,3-2.55,2.6-2.55A5.11,5.11,0,0,0,84.09,78Z"/><path class="cls-1" d="M159.91,77.67c0,.46.11.87.23.87s.38-.41.55-.87.06-.87-.23-.87-.55.41-.55.87Z"/><path class="cls-1" d="M53.3,79.11c-.75.63-1.05,1.12-.69,1.14a3.2,3.2,0,0,0,1.67-1.13c1.35-1.5.81-1.51-1,0Z"/><path class="cls-1" d="M71.93,78.57c0,.35.25.46.58.26s.58-.45.58-.61-.23-.26-.58-.26a.58.58,0,0,0-.58.61Z"/><path class="cls-1" d="M75.41,78.57c0,.35.25.46.58.26s.58-.45.58-.61S76.33,78,76,78a.58.58,0,0,0-.58.61Z"/><path class="cls-1" d="M61.75,79.38c-.58.44-.78.85-.43.86a2.21,2.21,0,0,0,1.37-.84c.9-1.11.51-1.12-.94,0Z"/><path class="cls-1" d="M73.09,80.88c0,.35.25.46.58.26s.58-.45.58-.61-.23-.26-.58-.26a.58.58,0,0,0-.58.61Z"/><path class="cls-1" d="M88.14,80.88c0,.35.25.46.58.26s.58-.45.58-.61-.23-.26-.58-.26a.58.58,0,0,0-.58.61Z"/><path class="cls-1" d="M159.33,81.14c-.42.52-.46.87-.12.87s.73-.41.9-.87.22-.87.12-.87a3.17,3.17,0,0,0-.9.87Z"/><path class="cls-1" d="M89.59,82.59c-.21.35-.12.58.23.58a1.15,1.15,0,0,0,.93-.58c.21-.35.12-.58-.23-.58a1.15,1.15,0,0,0-.93.58Z"/><path class="cls-1" d="M64.47,83.72c-.46.29-.72.7-.55.87S64.58,84.5,65,84c.85-1,.71-1.09-.5-.32Z"/><path class="cls-1" d="M82.64,84.91c-.57.64-.85,1.16-.61,1.16a6.28,6.28,0,0,0,1.91-1.16c.93-.73,1.15-1.16.61-1.16a3.39,3.39,0,0,0-1.91,1.16Z"/><path class="cls-1" d="M87.27,84.33c-.21.35,0,.44.52.24,1-.39,1.17-.82.35-.82a1.11,1.11,0,0,0-.87.58Z"/><path class="cls-1" d="M90.83,84.12a1.54,1.54,0,0,0-.38,1c0,.35.29.32.69-.09s.56-.82.38-1a.49.49,0,0,0-.69.09Z"/><path class="cls-1" d="M66.43,85.48c-.21.35,0,.44.52.24,1-.39,1.17-.82.35-.82a1.11,1.11,0,0,0-.87.58Z"/><path class="cls-1" d="M135.6,85.46c0,.29.41.4.87.23s.87-.43.87-.55-.41-.23-.87-.23-.87.26-.87.55Z"/><path class="cls-1" d="M61.52,86.09c0,.35.25.46.58.26s.58-.45.58-.61-.23-.26-.58-.26a.58.58,0,0,0-.58.61Z"/><path class="cls-1" d="M137.34,86.66c-.52.34-.59.56-.17.56a1.3,1.3,0,0,0,1.05-.58c.43-.7.22-.7-.88,0Z"/><path class="cls-1" d="M141.68,87.22a2.18,2.18,0,0,1-2.26.84c-.86-.23-.52.32,1.16,1.88,2.12,2,5.31,6,10.35,13.2a32,32,0,0,0,4.75,4.92c1.73,1.44,5,4.43,7.41,6.7,5,4.82,6.73,5.77,8.39,4.73,1.22-.76,1.88-2,1.44-2.75-.16-.25-1.33-.36-2.6-.23-2,.2-3.24-.46-1.85-1a3,3,0,0,0,1-1.65l.43-1.45-1.16,1.33c-.65.75-1.31,1.09-1.5.78s.06-.87.52-1.24a2.29,2.29,0,0,0,.87-1.27c0-.32-.43-.22-1,.2-.87.71-.93.67-.64-.49s.26-1.24-1-.44c-1.68,1.1-5.71.14-5.19-1.24q.33-.87,1-.29a1.25,1.25,0,0,0,1.53,0c.7-.46.67-.55-.2-.55-1.27,0-1.35-.9-.12-1.38.52-.2.79-.13.61.16s0,.65.43.81.75-.32.75-1.59-.2-1.72-.61-1.39-1.65,1.29-2.86,2.23l-2.26,1.74-.87-1.24c-.8-1.15-.75-1.35.69-2.6.87-.76,1.24-1.36.84-1.36a4.43,4.43,0,0,0-2.05,1.24c-.75.7-1.33.94-1.33.55a6,6,0,0,1,1.85-2.39c2.27-2.07,1.22-2.28-1.22-.23-1,.88-1.88,1.22-2.08.85s-.09-.61.26-.61a.63.63,0,0,0,.61-.64c0-.34-.41-.49-.87-.32s-.87,0-.87-.29.58-.46,1.39-.26a2,2,0,0,0,2-.38c.45-.56,0-.68-2.11-.52-2.6.2-2.66.17-1.68-.93a4.47,4.47,0,0,0,1-1.48c0-.2-.43-.19-1,0-.87.32-.9.24-.22-.61,1.3-1.61.19-1.9-1.43-.37l-1.5,1.42.43-1.74c.38-1.5.32-1.64-.43-1-1.14.94-1.82.21-.88-.94.61-.74.56-.81-.31-.49-.58.21-1,.23-1,0a4.78,4.78,0,0,1,1-1.5c1-1.1,1-1.14-.14-.72l-2,.75c-.6.22-.52-.09.29-1l1.16-1.33-1.45.46c-1.27.41-1.35.35-.67-.49.47-.58.54-1,.17-1a1.25,1.25,0,0,0-1,.58c-.54.87-1.44.69-1.44-.29,0-.46.27-.87.58-.87s.58-.43.58-1c0-.9-.06-.9-1,0-1.42,1.26-1.57,1.22-1.66-.46-.05-1,.16-1.3.74-1.07s.81,0,.81-.61c0-1.28-1.35-1.16-2.6.23Z"/><path class="cls-1" d="M163.67,87.57c-1.14,1.74-.59,2.79.6,1.16.76-1,1.14-2.66.61-2.66a5.72,5.72,0,0,0-1.22,1.5Z"/><path class="cls-1" d="M90.74,87.22c-.21.35,0,.44.52.24,1-.39,1.17-.82.35-.82a1.11,1.11,0,0,0-.87.58Z"/><path class="cls-1" d="M62.67,88.22c-3,2.19-8.1,7.29-8.1,8,0,1.28,1,.87,2.33-.93a52.69,52.69,0,0,1,4.5-4.89c3.3-3.21,3.8-4.08,1.27-2.21Z"/><path class="cls-1" d="M67.59,87.92a80.62,80.62,0,0,0-9.43,7.88C56.94,97,56.39,98,56.71,98.28s2.81-1.73,6.4-5.27c3.24-3.19,5.82-5.77,5.76-5.76s-.64.32-1.27.67Z"/><path class="cls-1" d="M148.91,88.09c-.37.46-.42.87-.12.87a2.29,2.29,0,0,0,1.27-.87c.37-.46.42-.87.12-.87a2.29,2.29,0,0,0-1.27.87Z"/><path class="cls-1" d="M175.53,89.25c-.4.46-.62,1-.46,1.16s.64-.12,1-.58.62-1,.46-1.16-.64.12-1,.58Z"/><path class="cls-1" d="M167.25,90c-1.09,1.22-1.23,1.85-.39,1.85.64,0,2-2.26,1.56-2.66-.13-.13-.65.23-1.17.81Z"/><path class="cls-1" d="M68.06,90.66A9.3,9.3,0,0,0,65.45,93c-.4.64-1,1.19-1.22,1.19-1.33,0-6.6,6.06-5.73,6.6.26.16,3-2.29,6.14-5.47s5.58-5.76,5.47-5.76a14.58,14.58,0,0,0-2.05,1.13Z"/><path class="cls-1" d="M97.86,90.33c-1.15.84-.81,3.26.46,3.26,1,0,1-1,.06-1.33-.53-.18-.5-.47.12-1.22,1-1.23.64-1.64-.64-.71Z"/><path class="cls-1" d="M168.76,91.71a11.74,11.74,0,0,1-.64,1.53c-.17.31-.06.38.29.16.58-.36,1.38-2.71.93-2.71-.13,0-.38.43-.58,1Z"/><path class="cls-1" d="M170.73,92.2c-.56.75-.78,1.39-.46,1.39.58,0,2-2.27,1.68-2.61-.09-.09-.65.47-1.22,1.22Z"/><path class="cls-1" d="M175.33,92.55a6.75,6.75,0,0,0-1.5,2.46c0,.34.54,0,1.19-.84s1.53-1.89,2-2.46.63-1,.35-1a6.16,6.16,0,0,0-2,1.85Z"/><path class="cls-1" d="M183.46,91.62a2,2,0,0,0-.41,1.24c0,.67.17.7.87.14a2.3,2.3,0,0,0,.87-1.22c0-.64-.77-.74-1.33-.17Z"/><path class="cls-1" d="M172.06,93.33a3.75,3.75,0,0,1-1.85,1.94l-1.27.46,1.27.32c.69.17,1.27.08,1.27-.2a4.08,4.08,0,0,1,1.16-1.68c1.27-1.27,1.53-2.32.58-2.32-.32,0-.84.67-1.16,1.48Z"/><path class="cls-1" d="M178.43,92.46c0,.35.25.46.58.26s.58-.45.58-.61-.23-.26-.58-.26a.58.58,0,0,0-.58.61Z"/><path class="cls-1" d="M69,93.3c-.62.74-.59.82.22.52.52-.19,1-.58,1-.87,0-.74-.34-.64-1.18.35Z"/><path class="cls-1" d="M94.79,93c-.21.35-.12.58.23.58A1.15,1.15,0,0,0,96,93c.21-.35.12-.58-.23-.58a1.15,1.15,0,0,0-.93.58Z"/><path class="cls-1" d="M130.05,93.65c-.61,1,.11,1.17.89.23.43-.52.48-.87.11-.87a1.39,1.39,0,0,0-1,.64Z"/><path class="cls-1" d="M131.33,95c-.56,1.5-.45,1.91.5,1.91s1-.17.34-1.79c-.43-1.1-.47-1.11-.84-.12Z"/><path class="cls-1" d="M64.52,97.4c-3.13,2.73-4.54,4.67-3.88,5.33.19.19,1.37-.84,2.58-2.23s2.43-2.38,2.66-2.14-.55,1.39-1.71,2.51c-2,1.91-2.7,3.71-1.5,3.71.28,0,.93-.58,1.42-1.27a60.69,60.69,0,0,1,4.17-4.63c3.27-3.36,4-4.95,1.24-2.8-2.2,1.73-3.89,1.37-2.08-.44s-.12-.47-2.89,2Z"/><path class="cls-1" d="M152.38,95.61c-.56.71-.52.87.23.87a.89.89,0,0,0,.93-.87c0-.46-.11-.87-.23-.87a2.94,2.94,0,0,0-.93.87Z"/><path class="cls-1" d="M120.61,96.25c0,.69.16.82.35.35a1.19,1.19,0,0,0-.06-1.1c-.18-.18-.32.17-.29.75Z"/><path class="cls-1" d="M101.11,97.12c-.61,1,.11,1.17.89.23.43-.52.48-.87.11-.87a1.39,1.39,0,0,0-1,.64Z"/><path class="cls-1" d="M132.79,98.85c-.64,1-.89,1.13-1.36.46s-.53-.64-.32.06a1.34,1.34,0,0,0,1.53.72c.75-.09,1.12.1.9.46a1.32,1.32,0,0,0,.32,1.42,1.44,1.44,0,0,1,.26,1.56c-.24.41.14.24.84-.37,1.5-1.33,1.62-2.17.23-1.63-.9.35-.9.27,0-1,1.14-1.62,1.34-2.9.3-1.85s-1.5.87-1.73-.23c-.14-.67-.36-.58-1,.41Z"/><path class="cls-1" d="M138.2,98.8c-.21.35-.12.58.23.58a1.15,1.15,0,0,0,.93-.58c.21-.35.12-.58-.23-.58a1.15,1.15,0,0,0-.93.58Z"/><path class="cls-1" d="M94.27,99.66c-.28.69-.12.75.81.26,1.33-.7,1.46-1.13.35-1.13a1.44,1.44,0,0,0-1.16.87Z"/><path class="cls-1" d="M72.51,100c-.52.34-.59.56-.17.56a1.3,1.3,0,0,0,1.05-.58c.43-.7.22-.7-.88,0Z"/><path class="cls-1" d="M124.6,99.95c-.74.5-.72.7.14,1.37.58.45,1,.93,1,1.13,0,.65,3.88,6.42,5.44,8.1.86.93,1.79,1.45,2.17,1.22s.55-.09.32.55-.15,1,.09,1a33.45,33.45,0,0,1,4.54,3.94A118.1,118.1,0,0,0,149.26,126c8.91,6.31,9.38,6.74,14.7,13.92a85.23,85.23,0,0,0,7,8.45c1.38,1.3,4.05,4.05,5.9,6.08s3.23,3.18,3,2.46-.07-1.36.49-1.57c1.33-.5,1.1-1.53-.35-1.53s-4.76-3.16-4.34-4.28c.21-.54-.09-.68-1.07-.49s-1.61-.14-2.46-1.53a42.2,42.2,0,0,0-4-4.86,98.84,98.84,0,0,1-8-10,7.56,7.56,0,0,0-2.3-2.1,18.51,18.51,0,0,1-5.27-3.42l-1.39-1.32,1.42-1.68q2.35-2.78.78-2.78c-.36,0-.48-.43-.26-1s-.55-.12-1.65.95c-2.14,2.07-2.45,3.42-.35,1.52,1-.94,1.16-1,1.16-.09,0,.52-.26,1-.58,1s-.58.41-.58.87c0,1.15-.75,1.08-2.37-.22l-1.39-1.11,1.45-1.22c.93-.78,1.08-1.09.43-.87s-1,0-1-.72c0-1-.1-1-1,.17l-1,1.24-4.86-4.23c-5-4.33-5.92-5.49-4.46-5.49s1.5-1.45,0-1.54c-1.91-.12-2.15-.46-1.35-1.94,1.09-2,.17-2.08-1-.06-.56,1-1.21,1.79-1.43,1.79-.67,0-.58-1.59.12-2a1.32,1.32,0,0,0,.58-1c0-.35-.52-.17-1.16.41-1.1,1-1.16,1-1.16-.23,0-.69-.26-1.12-.58-.93s-.58-.06-.58-.52c0-1.27-3.57-5-4.8-5-.93,0-1-.14-.4-.87.82-1,.63-1.11-.58-.3Z"/><path class="cls-1" d="M77.43,102.12c-4.8,4.08-7.81,7.16-7.81,8,0,.62,1.27-.35,3.47-2.66,3.09-3.24,3.58-3.56,4.43-2.84s.93.69.61-.58a1.75,1.75,0,0,1,.64-2.11c.52-.38.85-.86.69-1s-1,.35-2,1.18Z"/><path class="cls-1" d="M69.47,102.91a4.65,4.65,0,0,0-1,1.45,4.56,4.56,0,0,1-1.3,1.42c-1,.81-1.14,1.23-.64,1.74s.86.29,1.53-1a11.66,11.66,0,0,1,2.08-2.75c1.22-1.1,1.59-2.11.75-2a4.55,4.55,0,0,0-1.42,1.14Z"/><path class="cls-1" d="M73.33,102.33c-.61,1,.11,1.17.89.23.43-.52.48-.87.11-.87a1.39,1.39,0,0,0-1,.64Z"/><path class="cls-1" d="M112.45,104c0,.35.25.46.58.26s.58-.45.58-.61-.23-.26-.58-.26a.58.58,0,0,0-.58.61Z"/><path class="cls-1" d="M80.59,105.48c-.47.47-2.37,2.26-4.28,4-2.84,2.62-3.31,3.31-2.69,3.91s.94.43,1.71-.72a49.41,49.41,0,0,1,3.79-4.49c1.57-1.68,2.72-3.16,2.58-3.3s-.64.12-1.1.58Z"/><path class="cls-1" d="M69.13,107.07c-1.35,1.45-1.57,2.14-.67,2.14.3,0,1.05-.75,1.75-1.74,1.47-2.08.75-2.35-1.07-.41Z"/><path class="cls-1" d="M74,108.11c-1.5,1.33-2.69,2.73-2.69,3.18,0,1.41.94.93,2.6-1.33A21.07,21.07,0,0,1,76.48,107c.52-.42.76-.84.58-1s-1.5.76-3,2.08Z"/><path class="cls-1" d="M159.79,106.86c-.75.61-1.18,1.23-1,1.42s.94-.29,1.7-1.1c1.58-1.69,1.2-1.87-.71-.32Z"/><path class="cls-1" d="M82.35,107.51c0,.35.25.46.58.26s.58-.45.58-.61-.23-.26-.58-.26a.58.58,0,0,0-.58.61Z"/><path class="cls-1" d="M137.34,107.77c-.4.46-.62,1-.46,1.16s.64-.12,1-.58.62-1,.46-1.16-.64.12-1,.58Z"/><path class="cls-1" d="M139.94,108.06c-.2.33-.09.58.26.58a.58.58,0,0,0,.61-.58c0-.35-.1-.58-.26-.58s-.4.23-.61.58Z"/><path class="cls-1" d="M78.13,111.34c-2.6,2.53-3.28,3.66-2.2,3.66.58,0,5.46-5.76,5.15-6.08-.13-.13-1.45,1-3,2.42Z"/><path class="cls-1" d="M115.92,109.5c0,.46.27.87.58.87s.58-.41.58-.87-.27-.87-.58-.87-.58.41-.58.87Z"/><path class="cls-1" d="M105.33,110.38a5.17,5.17,0,0,1-2.17,1.15c-.41,0-.55.18-.32.41.46.46,4.4-1.56,4.4-2.26s-.23-.63-1.91.7Z"/><path class="cls-1" d="M111.64,110.77c-2.18,1.88-1.79,2.27.46.47,1-.79,1.62-1.5,1.48-1.65s-1,.39-1.94,1.18Z"/><path class="cls-1" d="M105.82,112.46c-.64.46-.9.81-.61.8.81,0,2.34-1,2-1.32s-.78.06-1.42.52Z"/><path class="cls-1" d="M138.84,111.93c-.56.56-.46,1.33.17,1.33.28,0,.67-.41.85-.87.33-.87-.32-1.16-1-.46Z"/><path class="cls-1" d="M141.44,112.64c-.75.65-1.24,1.43-1.13,1.79s.76-.12,1.5-1.1c1.56-2.08,1.46-2.27-.37-.69Z"/><path class="cls-1" d="M121.59,113.25c-.75.63-1.05,1.12-.69,1.14a3.2,3.2,0,0,0,1.67-1.13c1.35-1.5.81-1.51-1,0Z"/><path class="cls-1" d="M107.24,113.84c-.46.3-.69.64-.52.81s.64.07,1.1-.23.69-.64.52-.81-.64-.07-1.1.23Z"/><path class="cls-1" d="M114.76,113.87c0,.35.25.46.58.26s.58-.45.58-.61-.23-.26-.58-.26a.58.58,0,0,0-.58.61Z"/><path class="cls-1" d="M147.09,114.65a16.56,16.56,0,0,0-2.55,2.86c-.92,1.39-.92,1.5-.06,1.19q1-.35,1,.58c0,1.43.87,1.16,1.63-.52.92-2,.81-2.52-.26-1.16-.87,1.11-.89,1.1-.48-.29a5.06,5.06,0,0,1,.78-1.73c.58-.47,2-2.3,1.74-2.28a10.17,10.17,0,0,0-1.77,1.35Z"/><path class="cls-1" d="M120.67,116.82c-3.41,3.28-3.68,4.78-.29,1.64,2.49-2.31,4.23-4.11,4.23-4.38,0-.7-1.27.18-3.94,2.74Z"/><path class="cls-1" d="M115.34,116.17c-.81.64-1.17,1.14-.81,1.14a3.43,3.43,0,0,0,1.68-1.16c1.31-1.45,1-1.45-.87,0Z"/><path class="cls-1" d="M123.78,117.38c-.57.58-1,1.24-.8,1.39s.89-.35,1.65-1.16c1.58-1.68.8-1.89-.85-.23Z"/><path class="cls-1" d="M89,117.32c-.2.33-.09.58.26.58a.58.58,0,0,0,.61-.58c0-.35-.1-.58-.26-.58s-.4.23-.61.58Z"/><path class="cls-1" d="M116.17,118c-.62,1-.07,1.1,1.14.21,1-.72,1-.85.2-.85a1.74,1.74,0,0,0-1.35.64Z"/><path class="cls-1" d="M125.18,119.08c0,.35.25.46.58.26s.58-.45.58-.61-.23-.26-.58-.26a.58.58,0,0,0-.58.61Z"/><path class="cls-1" d="M120.49,120.22c-1.33,1.15-1.34,1.18-.12.59a4.79,4.79,0,0,0,1.63-1.19c.56-.91-.07-.66-1.52.59Z"/><path class="cls-1" d="M174.78,120c-.81.81-1.14.87-1.5.29s-.61-.58-1.19.12.22,1.91,5.49,7.7c11.53,12.68,11.89,13,13.66,10.77.7-.87.68-.94-.14-.63-1,.37-3-1.5-2.34-2.2.21-.23-.15-.28-.85-.12a1.64,1.64,0,0,1-1.91-.81c-.57-.91-.46-1.29.64-2.2s1.12-1.11.38-1.13a2.37,2.37,0,0,0-1.65.84c-.37.46-1,.71-1.24.52s-.25-.69.14-1.16c.56-.65.52-.74-.17-.48-1.16.44-2-.9-1-1.58.68-.46.67-.52-.09-.37a4,4,0,0,1-2.43-1l-1.53-1.22,1.24-1.24c.69-.69,1-1.24.61-1.24a2.3,2.3,0,0,0-1.33.87c-.37.46-1,.71-1.24.52s0-.71.67-1.2c1.85-1.3,1.39-2-.58-.89-1.68,1-1.78.94-3.13-.46l-1.39-1.45,1.47-1.56c1.63-1.74,1.09-2.31-.6-.63Z"/><path class="cls-1" d="M96.24,120.24c0,.35.25.46.58.26s.58-.45.58-.61-.23-.26-.58-.26a.58.58,0,0,0-.58.61Z"/><path class="cls-1" d="M164,120.23c-.52.34-.59.56-.17.56a1.3,1.3,0,0,0,1.05-.58c.43-.7.22-.7-.88,0Z"/><path class="cls-1" d="M124.37,122.38c-1.22.85-1.93,1.62-1.59,1.74a1.73,1.73,0,0,0,1.36-.43c.41-.35,1.27-1,1.91-1.42s1-.92.84-1.1-1.3.37-2.52,1.22Z"/><path class="cls-1" d="M187.75,121.72c0,.69.16.82.35.35A1.19,1.19,0,0,0,188,121c-.18-.18-.32.17-.29.75Z"/><path class="cls-1" d="M95.26,124.29a17.08,17.08,0,0,0-3.07,3.5c0,1.2,1.16.35,4-3,3.67-4.23,3.14-4.53-1-.55Z"/><path class="cls-1" d="M121.19,121.92c-.46.29-.73.7-.58.87s.81-.07,1.39-.51c1.25-.94.58-1.23-.81-.36Z"/><path class="cls-1" d="M131.49,122.35c-.72.93-.7,1,.2.26.58-.45,1-.88,1-1,0-.51-.45-.23-1.22.75Z"/><path class="cls-1" d="M88.14,122.32a6.84,6.84,0,0,0,.64,1.45c.62,1.16.66,1.16,1.45.09,1.13-1.53,1-1.79-.64-1.79-.81,0-1.45.11-1.45.26Z"/><path class="cls-1" d="M126.92,123.11c-.81.61-1.29,1.25-1.1,1.44s1-.17,1.74-.78c1.79-1.46,1.22-2.06-.64-.66Z"/><path class="cls-1" d="M99.43,123.68c-.78.87-.84,1.16-.23,1.16a2.35,2.35,0,0,0,1.53-1.16c.4-.64.5-1.16.23-1.16a3.62,3.62,0,0,0-1.53,1.16Z"/><path class="cls-1" d="M132.82,123.8a2.17,2.17,0,0,0-.69,1.19c0,.28.41.09.93-.43s.82-1,.69-1.19-.52,0-.93.43Z"/><path class="cls-1" d="M99.25,127.27q-4.34,4.17-1.79,3c1-.47,5.41-5.4,5.09-5.73-.12-.13-1.62,1.1-3.29,2.72Z"/><path class="cls-1" d="M158,125.54c-.74.93-1.16,1.06-1.78.54-.83-.69-1.56-.37-1.56.67,0,.29.41.37.93.17s.83-.08.61.52,0,.87.52.87.84.26.84.58.35.58.81.58a1.17,1.17,0,0,1,1.07.72c.21.57.46.56,1.22-.06a1.27,1.27,0,0,0,.36-1.88c-.72-1.33-1.72-1.47-1.72-.23s-1.1,1.14-1.52.06a1.9,1.9,0,0,1,.59-1.79,3,3,0,0,0,.93-1.45c0-.79-.18-.69-1.29.69Z"/><path class="cls-1" d="M129.12,127c-1.22.84-2.07,1.64-1.91,1.8.39.39,4.34-2.2,4.34-2.84s0-.64-2.43,1Z"/><path class="cls-1" d="M95.49,127.39c-1.79,1.66-2.08,3-.46,2.1,1.22-.65,3.24-3.5,2.49-3.5a6,6,0,0,0-2,1.39Z"/><path class="cls-1" d="M181.32,127.17c-.52.34-.59.56-.17.56a1.3,1.3,0,0,0,1.05-.58c.43-.7.22-.7-.88,0Z"/><path class="cls-1" d="M132.82,129.67c-1,.7-1.85,1.45-1.85,1.71s.93-.24,2-1.07a11.09,11.09,0,0,0,2-1.77c0-.33-.12-.27-2.2,1.13Z"/><path class="cls-1" d="M166.3,131.27c.38.69.76,1.12.89,1,.39-.4-.46-2.2-1-2.2-.3,0-.24.52.14,1.22Z"/><path class="cls-1" d="M103.71,132.37c-1.33,1.17-1.67,1.74-1,1.74.88,0,2.17-1.16,3.1-2.78.65-1.13.09-.85-2.06,1Z"/><path class="cls-1" d="M106.08,133.23c-1.07,1.1-1.81,2.17-1.62,2.35.35.33,1.85-1,3.82-3.45,1.42-1.75-.23-.93-2.2,1.1Z"/><path class="cls-1" d="M136.29,132.48c-1,.63-1.78,1.29-1.62,1.45.41.41,3.82-1.5,3.82-2.14s.06-.67-2.2.7Z"/><path class="cls-1" d="M108.46,134.39c-1.07,1.1-1.82,2.18-1.63,2.37.35.35,2.54-1.85,3.39-3.41s.5-1.27-1.76,1Z"/><path class="cls-1" d="M161.93,132.94c-.2.33.06.58.58.58s.77-.25.58-.58-.44-.58-.58-.58-.37.23-.58.58Z"/><path class="cls-1" d="M164.34,133.23c-.17.46-.06.87.23.87s.55-.41.55-.87-.11-.87-.23-.87-.38.41-.55.87Z"/><path class="cls-1" d="M196.95,133.75c0,.12.41.38.87.55s.87.06.87-.23-.41-.55-.87-.55-.87.11-.87.23Z"/><path class="cls-1" d="M110.19,136.1c-.76.81-1.21,1.66-1,1.88.54.54,2.87-1.85,2.6-2.66-.14-.41-.8-.09-1.62.78Z"/><path class="cls-1" d="M139.07,135.89c-1.27,1-1.29,1.09-.17.56a4.78,4.78,0,0,0,1.63-1.19c.52-.83.16-.68-1.46.63Z"/><path class="cls-1" d="M193.39,136.82c.7,1.33,4.17,4.23,5.06,4.23.46,0-.41-.86-4.34-4.29l-1.39-1.21.67,1.27Z"/><path class="cls-1" d="M166.33,137c-.46.29-.72.7-.55.87s.66-.09,1.05-.55c.85-1,.71-1.09-.5-.32Z"/><path class="cls-1" d="M196.4,137.29c.39.46.86.73,1,.58.39-.39-.46-1.45-1.16-1.45-.35,0-.29.35.14.87Z"/><path class="cls-1" d="M114.79,138.5c-1.71,2-1.26,2.42.53.52.76-.81,1.23-1.57,1.07-1.74s-.89.41-1.6,1.22Z"/><path class="cls-1" d="M139.56,138c-.71.87-.67.89.49.28,1.33-.71,1.68-1.23.81-1.23a2.56,2.56,0,0,0-1.3,1Z"/><path class="cls-1" d="M116.61,140c-.94.94-.87,1.62.17,1.62.48,0,.87-.52.87-1.16,0-1.33-.12-1.38-1-.46Z"/><path class="cls-1" d="M190.87,140.31c-1.33,1-.46,2.68,2.55,5,4.28,3.27,4.58,3.86,3,6a10,10,0,0,1-2.65,2.49c-1.15.6-1.59.51-3.27-.67a48.25,48.25,0,0,1-3.85-3.1c-2.26-2.06-2.49-1.06-.28,1.16,1.9,1.91,6.18,4.92,7,4.92.32,0,1.6-1.27,2.89-2.89l2.32-2.89,1.48,1.3a6.66,6.66,0,0,1,1.82,3.13c.3,1.59,0,2.14-2,4.28-1.27,1.33-2.5,2.3-2.69,2.11s.36-1.1,1.18-2c2.79-3,2.8-4,0-1.16-3.23,3.24-4.5,3.68-7.22,2.5l-2-.88,2.32-.09c1.27,0,1.79-.22,1.16-.38a5.9,5.9,0,0,1-1.91-.9c-.56-.45-.94-.35-1.48.41-.65.91-.87.93-2.14.23a12.27,12.27,0,0,1-1.69-1.07,12.31,12.31,0,0,0-4.12-2.32c-2.63,0,6.48,5.39,10.71,6.33,5,1.11,9.25-1.11,10.83-5.64.74-2.13.43-2.72-3.79-7.29-2.88-3.11-2.81-3.41.89-4.07a6,6,0,0,0,2.92-1.31c.7-.83.67-.87-.38-.32a15.09,15.09,0,0,1-6.37.81c-.87-.07-1-.23-.41-.78,1.15-1.15.87-1.38-1.62-1.34s-3-.43-1.33-1.36c.94-.54.93-.6-.12-.63a3.39,3.39,0,0,0-1.74.4Z"/><path class="cls-1" d="M144.57,141.88c-1,.8-1.44,1.43-1,1.45a5.7,5.7,0,0,0,2.32-1.4c2.11-1.85,1-1.9-1.27-.05Z"/><path class="cls-1" d="M120.84,141.63c-.2.33-.09.58.26.58a.58.58,0,0,0,.61-.58c0-.35-.1-.58-.26-.58s-.4.23-.61.58Z"/><path class="cls-1" d="M170,141.63c-.2.33-.09.58.26.58a.58.58,0,0,0,.61-.58c0-.35-.1-.58-.26-.58s-.4.23-.61.58Z"/><path class="cls-1" d="M185.46,144.64c-1.28,1.33-2.23,2.54-2.11,2.66.31.31,5.38-4,5.46-4.63.13-1.06-1.18-.29-3.35,2Z"/><path class="cls-1" d="M122.29,143.65c-.4.46-.62,1-.46,1.16s.64-.12,1-.58.62-1,.46-1.16-.64.12-1,.58Z"/><path class="cls-1" d="M119.1,143.94c-.2.33-.09.58.26.58a.58.58,0,0,0,.61-.58c0-.35-.1-.58-.26-.58s-.4.23-.61.58Z"/><path class="cls-1" d="M147.43,144.78c-.64.47-.86.85-.52.87a3.76,3.76,0,0,0,1.74-.81c.64-.47.86-.85.52-.87a3.76,3.76,0,0,0-1.74.81Z"/><path class="cls-1" d="M149.61,145.67q-1.39,1.17-.55,1.17a3.38,3.38,0,0,0,1.88-1.16c1.36-1.51.46-1.51-1.33,0Z"/><path class="cls-1" d="M123.21,146c-.22.58-.09.84.35.69.87-.29,1.34-1.62.58-1.62-.33,0-.73.41-.93.93Z"/><path class="cls-1" d="M125.59,146.51c-.58.44-1,1.17-.87,1.54s.68,0,1.25-.87c1.13-1.74,1.09-1.8-.38-.67Z"/><path class="cls-1" d="M151.8,146.86c0,.35.25.46.58.26s.58-.45.58-.61-.23-.26-.58-.26a.58.58,0,0,0-.58.61Z"/><path class="cls-1" d="M153.2,150.37c-.61,1,.11,1.17.89.23.43-.52.48-.87.11-.87a1.39,1.39,0,0,0-1,.64Z"/><path class="cls-1" d="M132.42,151.47c-.57.64-.91,1.29-.75,1.45s.76-.23,1.33-.87.91-1.29.75-1.45-.76.23-1.33.87Z"/><path class="cls-1" d="M154.61,151.84c-.72.88-.67.9.67.21,1.91-1,2.07-1.16,1-1.16a2.67,2.67,0,0,0-1.71,1Z"/><path class="cls-1" d="M146.6,152c0,.3.43.64,1,.81s1.53.48,2.17.72c1.16.43,1.16.43,0-.84S146.6,151,146.6,152Z"/><path class="cls-1" d="M134.1,152.68c-.61,1,.11,1.17.89.23.43-.52.48-.87.11-.87a1.39,1.39,0,0,0-1,.64Z"/><path class="cls-1" d="M136.61,153.32a4.8,4.8,0,0,0-1,1.82c0,.33.06.46.14.32s.78-1,1.53-1.82,1.15-1.59.87-1.59-1,.58-1.53,1.27Z"/><path class="cls-1" d="M157,152.62c-.46.3-.69.64-.52.81s.64.07,1.1-.23.69-.64.52-.81-.64-.07-1.1.23Z"/><path class="cls-1" d="M169.67,153c-.61.75-.62.87,0,.52s1.91.31,3.94,1.65c4,2.65,4.62,2.42.93-.33s-4-2.9-4.82-1.84Z"/><path class="cls-1" d="M159,153.78c-.57.64-.78,1.16-.46,1.16.75,0,2.19-1.63,1.79-2-.16-.16-.76.23-1.33.87Z"/><path class="cls-1" d="M137.37,155.46c-.76,1.39-.77,1.94,0,1.49.93-.57,1.88-2.59,1.22-2.59-.3,0-.86.52-1.18,1.1Z"/><path class="cls-1" d="M143.3,155.23c-.43.46-.53.95-.23,1.13s.68-.09.88-.61c.49-1.27.24-1.48-.65-.52Z"/><path class="cls-1" d="M195.21,155.86c0,.46.27.71.58.52a.61.61,0,0,0,.26-.87c-.51-.83-.84-.69-.84.35Z"/><path class="cls-1" d="M161.63,157c-.62.74-.59.82.22.52.52-.19,1-.58,1-.87,0-.74-.34-.64-1.18.35Z"/><path class="cls-1" d="M186,156.67a.58.58,0,1,0,.58-.58.55.55,0,0,0-.58.58Z"/><path class="cls-1" d="M191.16,157.28c0,.35.25.46.58.26s.58-.45.58-.61-.23-.26-.58-.26a.58.58,0,0,0-.58.61Z"/><path class="cls-1" d="M164,157.8c-.46.29-.72.7-.55.87s.66-.09,1.05-.55c.85-1,.71-1.09-.5-.32Z"/><path class="cls-1" d="M164.83,159.57c-.57.64-.78,1.16-.46,1.16.75,0,2.19-1.63,1.79-2-.16-.16-.76.23-1.33.87Z"/><path class="cls-1" d="M177.85,159.57a.58.58,0,1,0,.58-.58.55.55,0,0,0-.58.58Z"/><path class="cls-1" d="M168.59,161.9c-.52.34-.59.56-.17.56a1.3,1.3,0,0,0,1.05-.58c.43-.7.22-.7-.88,0Z"/><path class="cls-1" d="M188.85,163.79c0,.49.64,1.28,1.45,1.81,2.25,1.46,1.74,2.07-1.74,2.07-3.88,0-4.15,1-.41,1.44l4.83.64c1.16.16,2.27,0,2.46-.29s-1-1.83-2.6-3.36c-3.36-3.16-4-3.53-4-2.31Z"/></svg>