<svg id="Layer_1" data-name="Layer 1" xmlns="http://www.w3.org/2000/svg" viewBox="0 0 411 236"><defs><style>.cls-1{fill:#f6a0a7;}</style></defs><title>Have-and-Hold</title><path class="cls-1" d="M363.64,86.7c-2.37.85-5.26,1.88-6.37,2.26s-2.82,1-3.76,1.42a43,43,0,0,1-4.63,1.48,86.77,86.77,0,0,0-8.39,3A86.1,86.1,0,0,1,325.15,100l-4.05.82c-1.27.26-12.84,2-13.25,2-.17,0-.17.35,0,.81a1.15,1.15,0,0,0,1.42.52,2.47,2.47,0,0,1,2,.43c.74.62.81.58.49-.29s-.06-1,2.32-.81c1.5.11,2.77,0,2.86-.29s1.79-.53,3.76-.58,3.59-.31,3.59-.58.52-.36,1.16-.2,1.16.06,1.16-.23.46-.52,1-.52a2.79,2.79,0,0,0,1.74-.69c.53-.53,1-.45,1.82.35,1.1,1,1.12,1,.78-.26-.29-1.1-.15-1.25.9-1,.69.18,1.24.09,1.24-.2s.49-.52,1.13-.52a1.91,1.91,0,0,0,1.5-.61,1,1,0,0,1,1.16-.32.79.79,0,0,0,1-.41c.18-.54.49-.54,1.42,0s1.15.56.89-.41c-.31-1.16.64-1.59,1.26-.58a1.25,1.25,0,0,0,1,.58c.39,0,.37-.29-.06-.81-.86-1,.34-1.95,1.31-1s1.6.81,1.18-.29c-.3-.8-.14-.92.84-.67q1.22.32,1.56-.58c.27-.69.5-.74,1-.2.93.93,1.56.81,1.56-.29,0-.75.16-.8.87-.23s.87.55.87-.26.32-.86,1.24-.58,1.11.17.87-.2.46-.76,1.5-1a7.57,7.57,0,0,0,2.89-1.3c.64-.56,1-.65,1-.23a.65.65,0,0,0,.58.67c.32,0,.52-.32.43-.72s.26-.72.72-.72a1.75,1.75,0,0,0,1.24-.52c.67-.94,3.62-.92,4.66,0s1.43.26.3-1c-.59-.63-.47-.68.74-.32a11.43,11.43,0,0,0,3.18.37c2.81-.11,5.41,1.69,7.57,5.22a23,23,0,0,0,3,4.05c.87.71.93.71.49-.06-.26-.47-1-1.62-1.61-2.49-1.2-1.74-1-2.73.37-1.61a28,28,0,0,1,3,4.44c2.37,4.05,3.34,4.65,1.42.87-1.15-2.26-.86-3.23.48-1.62A39.05,39.05,0,0,1,391,104.7a14.58,14.58,0,0,0,1.82,3.7,7.51,7.51,0,0,1,1.59,5.38,13,13,0,0,0,.77,3.13,17.91,17.91,0,0,1,.81,5,6.51,6.51,0,0,0,.64,3.33c.46.46.14,1.19-1.1,2.58-.93,1-1.88,1.79-2.05,1.62a20.07,20.07,0,0,1-.43-4.63A21.15,21.15,0,0,0,392,118.1a24.94,24.94,0,0,1-1.39-4.69,22.22,22.22,0,0,0-1.79-5.12c-.87-1.74-1.28-2.22-1.07-1.24.27,1.22.13,1.59-.58,1.59a.89.89,0,0,1-.93-.87c0-.46-.27-.87-.58-.87-.52,0-.39.46,1.2,4.34a25.51,25.51,0,0,1,.79,4.95,31.32,31.32,0,0,0,1,5.67,4,4,0,0,1,.35,2.17c-.42.42-2.14-3.53-2.14-4.92s-4.2-8-4.51-7.06c-.13.39.45,1.71,1.3,3a16.3,16.3,0,0,1,2.05,5,35.8,35.8,0,0,0,1,4.2,33.4,33.4,0,0,1,.94,5.38c.58,5.52,1.75,5.09,1.28-.46-.22-2.55-.14-4.34.18-4.34s.63,1.36.72,3,.41,2.92.75,2.75.49-1.53.38-3.1c-.14-1.91,0-2.69.43-2.43a2.68,2.68,0,0,1,.64,2,3.8,3.8,0,0,0,.67,2.26c.52.52.5.87-.06,1.56a2.2,2.2,0,0,1-1.27.9,6,6,0,0,0-2.11,1.85l-1.56,1.85-.41-2.29a36.52,36.52,0,0,1-.43-4.92,8,8,0,0,0-.87-3.76,5,5,0,0,1-.87-2.4,2.21,2.21,0,0,0-.61-1.62,2.27,2.27,0,0,1-.58-1.71,2.93,2.93,0,0,0-.81-2,9.94,9.94,0,0,1-1.79-2.72c-.55-1.16-1.11-1.93-1.26-1.77-.57.6.37,3.18,1.76,4.86a9,9,0,0,1,1.67,3.65,18.67,18.67,0,0,0,.71,3c.87,2.19-.59.93-1.6-1.39-1.44-3.29-1.92-1.85-.79,2.32a39,39,0,0,1,1.07,5.32c.14,1.68,0,2-.84,1.85s-1,.29-1,2.14a13.33,13.33,0,0,0,.58,3.85c.48,1.27.35,1.72-.75,2.64-1.9,1.57-2.72,1.33-2.72-.81a28.17,28.17,0,0,0-.38-4c-.24-1.39-.15-2.17.26-2.17s.71,1.42.81,3.33.43,3.26.75,3.17c1.05-.3.34-10.49-.9-12.92a10.39,10.39,0,0,1-1.12-3.07c0-1-5.07-11.34-5.56-11.34-.17,0-.19.17,0,.43a22.06,22.06,0,0,1,.93,2.92,9.6,9.6,0,0,0,1.82,3.65c1,1,2.31,5.32,3.23,10.65.26,1.51.11,1.39-1.2-1a12,12,0,0,1-1.5-3.91c0-.64-.27-1.19-.58-1.19-.82,0-.76.46.51,4.05,1.15,3.24,1.14,4.2-.05,3s-1.62-.75-1.28,2c.48,4-.52,2.26-2.67-4.63-1.66-5.32-5.76-15.08-6.17-14.69-.17.16,1.67,5.43,4.37,12.49a10.06,10.06,0,0,1,.93,3.59c-.16.28,0,.61.32.82.81.5.69,1.44-.17,1.44-.42,0-1.35-1.91-2.12-4.34-1.4-4.46-3.31-8.19-3.9-7.63-.19.18.35,1.67,1.21,3.29a70,70,0,0,1,4.73,15.63c.24,1.85.2,1.91-.41.72-.47-.93-1-1.21-1.74-1s-1.31-.26-2.23-2.46c-.63-1.5-1.56-3.57-2-4.51l-.87-1.74.35,2c.19,1.1.39,2.28.43,2.58s-.35.64-.93.75c-.73.15-1-.17-1-1.16A4.58,4.58,0,0,0,361,132c-.85-1-.9-1-.58-.06.2.61.51,1.74.72,2.6a46.88,46.88,0,0,0,1.68,4.72,30.59,30.59,0,0,1,1.71,6.95,14.13,14.13,0,0,0,1,4.51.89.89,0,0,1,0,1.36c-.43.43-.81-.41-1.27-2.78a40.24,40.24,0,0,0-1-4.25,11.21,11.21,0,0,1-.52-2.14,16.73,16.73,0,0,0-1.16-3.47c-2.46-5.5-3.29-7.18-3.46-7s1.31,4.8,2.36,6.83a36.88,36.88,0,0,1,1.74,7,44.34,44.34,0,0,0,1.41,6.34c.54,1,.21,2.32-.6,2.32-.28,0-.52-.67-.52-1.42a10.35,10.35,0,0,0-.64-3,10.32,10.32,0,0,1-.61-3.21c0-.87-.22-1.59-.52-1.59s-.54.46-.53,1a52.85,52.85,0,0,0,2,8.33c.25.6-.63,1.71-2.83,3.59a18.67,18.67,0,0,1-3.7,2.72c-.54,0-1.35-2.43-2.42-7.23a50.1,50.1,0,0,0-2.55-7.23c-1-2.37-2.38-5.46-3-6.8a11.21,11.21,0,0,0-1.85-3.14c-1.16-1-.93.27.35,1.89a17.41,17.41,0,0,1,2.05,4.23c.53,1.58,1.58,4.17,2.37,5.85a15.08,15.08,0,0,1,1.42,4.11,34.73,34.73,0,0,0,1.16,5.27c1.33,4.8,1.33,4.8.7,4.8-.29,0-.83-1.1-1.21-2.43-2.37-8.33-6-17.54-6.29-16-.11.51.6,2.63,1.57,4.72a24.23,24.23,0,0,1,1.77,4.54,12,12,0,0,0,.55,2.52,35.17,35.17,0,0,1,.9,3.91,7,7,0,0,0,1.16,3c.67.69.67.89,0,1.16s-1.13-.72-2-3.56c-.66-2.14-1.35-4.72-1.56-5.76a4.52,4.52,0,0,0-1-2.26c-.72-.47,0,3.62,1.48,8.48,1.29,4.23,1.29,4.23.54,4.49-.32.11-.89-1.1-1.27-2.72a9.46,9.46,0,0,0-1.16-3.21,6.88,6.88,0,0,1-.84-2.89,6,6,0,0,0-1-2.94c-.93-.54-.7.8,1.44,8.62,1.08,3.94,1.12,4.46.35,4.46-.32,0-.74-.69-.93-1.56-.85-3.76-2.24-7.7-2.72-7.7s-.09,2.6,1.1,6.08c1,2.78,1.13,5.72.26,4.34a38.18,38.18,0,0,1-1.85-4.77c-.71-2.14-1.41-3.79-1.53-3.65a15.54,15.54,0,0,0,1,4c1.29,4,1.52,5.56.81,5.56-.25,0-1.21-2.08-2.11-4.63a24.23,24.23,0,0,0-1.94-4.63c-.31,0,.4,3.53.87,4.34a5.26,5.26,0,0,1,.49,1.45c.08.47.33,1.79.55,2.89l.41,2-1.24-1.1-1.24-1.1.35,2,.35,2-1.27-1.45-1.27-1.45.35,1.59c.19.87.14,1.59-.12,1.59-.53,0-3-4.63-3-5.61a.71.71,0,0,0-.64-.75c-.39,0-.47.41-.21,1,1.25,3.07,2.11,6,1.83,6.27s-1.17-1.3-2.16-3.26c-2.3-4.56-3-4.11-.93.58.88,2,1.48,3.84,1.35,4.23-.23.71-3.88-5.38-3.88-6.48a.62.62,0,0,0-.58-.64c-.78,0-.74.17.91,4.11,1.74,4.17,1.61,5.72-.23,2.6-1.53-2.6-2.37-2.37-1,.29,1,2.08,1.15,2.84.42,2.84-.3,0-.82-.75-1.22-1.74s-.92-1.74-1.22-1.74c-.66,0-.64.12.41,2.2.9,1.79.88,1.89-.43,3l-1.36,1.1L324,178.15c-3-4.81-3.11-3.88-.22,1.45.91,1.68.85,2.55-.18,2.55-.21,0-.56-.46-.73-1-.72-2.2-3.27-6.21-3.27-5.15a11.75,11.75,0,0,0,1.74,3.91l1.74,2.81-1.79.93c-1,.51-2,.7-2.26.43a46.75,46.75,0,0,1-2.59-4.54c-3.17-6-3.39-5.73-.52.69,1.68,3.76,2.25,6,1.56,6-.29,0-1.14-1.24-1.88-2.75s-1.46-2.43-1.59-2.05a7,7,0,0,0,1,3.1c1.17,2.32,1.18,2.43.17,3.19-1.68,1.27-2.36,1-4-1.83-2.07-3.53-2.57-2.78-.58.87s1,4.27-1.15.58a10.13,10.13,0,0,0-2.09-2.84c-.69,0-.55.46,1,3.24s1.76,3.7.91,3.7c-.3,0-.82-.75-1.22-1.74s-.88-1.74-1.13-1.74-.78-.72-1.19-1.59-.85-1.3-1-.84a1.8,1.8,0,0,0,.42,1.56,31.78,31.78,0,0,1,2.91,5.32c0,.1-.2.17-.49.17s-1.35-1.33-2.4-3c-2.37-3.67-2.91-3.3-.93.64,1.66,3.3,1.71,3.47,1,3.47s-3.59-4.46-3.59-5.27a.59.59,0,0,0-.64-.52c-.35,0,.15,1.45,1.09,3.18,1.57,2.89,1.73,3.76.71,3.76a11,11,0,0,1-2-3.18c-.87-1.74-1.83-3.18-2.11-3.18S299,190.07,300,192c1.75,3.47,1.35,4.94-.47,1.74-.56-1-1.18-1.74-1.42-1.74s-.43-.49-.43-1.13a1.9,1.9,0,0,0-.58-1.49c-1-.61-.66.82.89,3.89.82,1.62,1.36,3.08,1.2,3.24-.48.48-1.57-.52-2.13-2-.29-.75-.8-1.39-1.12-1.39-.83,0-.74.69.3,2.2a3.09,3.09,0,0,1,.71,2c-.3.92-3.61-3.53-4.52-6.08-.41-1.16-1-2.14-1.23-2.14-.69,0,2.08,6.67,3,7.25.75.47.75,1.44,0,1.44-.31,0-1.41-1.27-2.38-2.78-1.76-2.71-1.85-1.62-.14,1.74,1.35,2.66.89,3.18-.73.81-.83-1.22-1.64-2.06-1.81-1.88s.1,1,.64,1.77a5.7,5.7,0,0,1,1,2.08c0,1.24-1.09.52-2.27-1.5-.68-1.16-1.42-2-1.6-1.79s.07,1,.61,1.79a5.35,5.35,0,0,1,.94,2.2c0,.87-3.28-2.89-3.76-4.34-.17-.52-.61-1-.94-1s.18,1.45,1.12,3.18c2.2,4.05,1.39,4.66-1.08.81-2.32-3.62-2.9-3.36-.9.41.8,1.5,1.31,2.94,1.13,3.13-.4.4-3-2.78-3.72-4.57-.3-.75-.69-1.24-.85-1.07s.38,1.65,1.19,3.27c1.07,2.14,1.26,3,.69,3-.42,0-1.09-.61-1.45-1.3-.62-1.21-.64-1.19-.35.38.25,1.33.13,1.61-.58,1.33-.52-.2-.9,0-.9.41s-1.1,1.18-2.43,1.71l-2.43,1-1.68-1.88-1.68-1.88,1.22,2.23c1.1,2,1.12,2.21.2,2-.56-.11-2.12-1.88-3.49-4-3.08-4.68-3.17-4.11-.17,1.16,1.65,2.89,2.06,4.05,1.46,4.05s-.85-.19-.87-.43a8.41,8.41,0,0,0-1.48-2.17l-1.45-1.74,1,2.14c.94,2,.65,3.87-.35,2.26-.38-.61-.52-.61-.73,0s-.74.26-1.81-.9c-2-2.15-2.47-1.62-1,1,.66,1.16.95,2.08.66,2.08s-.67-.41-.84-.87a1.3,1.3,0,0,0-1-.87c-.35,0-.51.41-.34.87.51,1.37-.64,1-2.24-.75-.8-.87-1.44-1.24-1.44-.84a.83.83,0,0,1-.87.72c-.46,0-.87.27-.87.58a.55.55,0,0,0,.58.58c.33,0,.58.41.58.93s-.31.81-.84.61-.91.09-1,.67c-.15.85-.35.81-1.45-.29-1.62-1.62-2.14-1.7-1.19-.17,1.09,1.74,0,2.06-1.7.51-1.45-1.33-1.48-1.33-.83-.11,1.28,2.43.7,2.73-1.42.74l-2.14-2,1.3,2.17c1.08,1.79,1.13,2.11.32,1.79a1.17,1.17,0,0,0-1.45.38c-.35.57-1,.14-2.84-1.71-1.28-1.33-2.37-2.82-2.37-3.24a1.55,1.55,0,0,0-.58-1.14c-1.16-.72-.53.82,1.69,4.12,2.49,3.7,2.09,5-.58,1.91-1.33-1.56-1.57-1.68-1.31-.64A3.14,3.14,0,0,0,241,216a1.68,1.68,0,0,1,.49,1.3c0,.68-.76.17-2.38-1.62-2.46-2.73-2.49-2.26-.06,1,1.49,2,.76,2.55-1.18.85-1.1-1-1.14-1-.78,0s.17,1-.87.67-1.17-.18-.89.55c.4,1-.46,1.32-1.06.35-.71-1.15-1.52-.64-1.1.69s.42,1.33-.82.23c-.69-.61-1.41-.93-1.62-.72s-.06.38.29.38a.65.65,0,0,1,.67.58c0,1-1,.64-3-1l-1.91-1.57,1,1.59c.91,1.39.93,1.63.17,1.92-2.48,1-9.15-1.84-10.48-4.38-1-2-1.08-2.32-.34-2.32.32,0,1,.72,1.45,1.59s.88,1.22.9.69a2.26,2.26,0,0,0-.61-1.53c-.46-.46-.47-.74,0-1s1.22.69,1.94,2a7.27,7.27,0,0,0,1.74,2.35c.64,0,.12-3.48-.64-4.23-1-1-.81-2.35.23-2,.46.18.87.07.87-.22s-.29-.55-.69-.55c-1,0,2.14-1.87,5.09-3,2.73-1.09,3.29-.84,4.44,1.94.65,1.56.71,2.31.25,2.78s-.35.64.35.64c1.59,0,1.75-1.45.44-4l-1.19-2.32,1.27-1.19a4.51,4.51,0,0,1,1.88-1.19c.34,0,5.53-2.42,11.6-5.41s13.59-6.37,16.78-7.56c9.67-3.59,11.15-4.36,11.78-6.19s0-2.17-1.82-.51-3.93,2.09-4.59.91c-.84-1.51-1.63-1.1-1,.52.42,1.1.36,1.45-.25,1.45a1.43,1.43,0,0,1-1.16-1c-.19-.52-.51-.81-.69-.64s-.07.84.29,1.53c.57,1.08.41,1.31-1.45,2.09-2.84,1.19-3.42,1.13-4.16-.41-.42-.87-.65-1-.67-.43a2.26,2.26,0,0,0,.61,1.53c.48.48.14.89-1.3,1.65a10.84,10.84,0,0,1-3.1,1.1,10.6,10.6,0,0,0-3.36,1.42c-2.14,1.3-2.23,1.3-3.41.26s-1.22-1.07-.55.2c.88,1.68.83,2.12-.2,1.72-.46-.18-.87-.08-.87.22s-1.24,1.14-2.75,1.85a22.53,22.53,0,0,0-3,1.62,14.67,14.67,0,0,1-3.18,1.1,17.48,17.48,0,0,0-4.05,1.57c-1.68,1.14-2.52,1-3.27-.67-.37-.81-.9-1.45-1.19-1.45s-.12.75.36,1.68c1.1,2.08,1.13,2.52.16,2.2a3.38,3.38,0,0,0-2.14.75,11.8,11.8,0,0,1-2.89,1.39,18.17,18.17,0,0,0-2.72,1c-1.06.53-1.47.41-2.43-.75-.63-.75-1.17-1.06-1.19-.67s.2.72.49.72.66.55.81,1.19c.24,1,.1,1.13-.81.84s-1-.11-.75.55,0,.9-.52.9a1.45,1.45,0,0,1-1.2-.87c-.52-1.37-1.44-1-1.12.41.23,1,.16,1.15-.31.49-.34-.46-.8-.66-1-.43s-.14.69.26,1.1c1.29,1.29.69,1.86-.64.61-1.68-1.57-2.68-1.69-1.28-.15,1.13,1.25.7,1.58-.57.44-.43-.38-1.27-1.11-1.79-1.54-.9-.74-.81-.9,1-1.85a9.31,9.31,0,0,1,3-1.07c.58,0,1-.3,1-.67s.38-.49.9-.29.76.13.58-.17,0-.81.49-1.2c1-.83.69-1.87-1.4-4.77-1.17-1.62-1.71-2-2.21-1.48s-.66.41-.64-.46,1.42-2.07,4.08-3.88a26.94,26.94,0,0,1,4.6-2.75c.33,0,.55-.17.55-.43s1-.93,2.17-1.56a21.12,21.12,0,0,0,3.33-2.13c1.39-1.2,12.11-6.4,12.79-6.21,1.49.42,6.08-1,10.71-3.39,8.8-4.47,11.56-6.37,15.46-10.65,2.06-2.26,4.38-4.34,5.14-4.63,1.85-.69,2.3-2.12,1-3.33-.81-.78-1-.79-.87-.08.21,1.56,0,2.39-.52,2.06-.3-.19-.67.05-.87.57-.28.72-.69.52-2.08-1-1-1-1.74-1.62-1.74-1.3a4.57,4.57,0,0,0,1.17,1.85c1.12,1.22,1.49,2.43.74,2.43a11.11,11.11,0,0,1-2.32-2.17c-1.52-1.68-1.82-1.84-1.3-.72a7.31,7.31,0,0,0,1.82,2.34c1,.76,1,1,.35,1.56s-1.2.14-2.83-2c-2.85-3.76-6.86-8.08-6.88-7.41a6.35,6.35,0,0,0,1.61,2.32c2.38,2.55,6.52,9.06,6.14,9.67-.51.82-6.72,4.74-9.38,5.92-2.08.92-2.57,1-3.39.27s-.93-.69-.63.46c.53,2.09-.73,1.56-3.43-1.45-1.35-1.5-2.46-2.57-2.48-2.37a9.56,9.56,0,0,0,1.71,2.32,6.68,6.68,0,0,1,1.74,3.13c0,.9-.58.52-2.62-1.74-3-3.31-3.36-3-.74.64,2.29,3.18,1.73,4-.82,1.22A8.88,8.88,0,0,0,243,175.2c-.29,0,.2.75,1.09,1.68,2,2.08,1.48,3.65-.57,1.73-1.39-1.3-2-.81-.69.53.41.41.5.88.23,1.13s-1.11-.32-1.86-1.19c-1.9-2.21-2.31-2-.79.46,1.08,1.74,1.13,2,.31,2a1.46,1.46,0,0,1-1.27-.87,1.29,1.29,0,0,0-1-.87q-.64,0,.06.69c1,1,.87,1.37-.75,2.08-1.22.54-1.54.46-2.05-.49-.34-.64-.89-1.13-1.24-1.13s-.17.52.41,1.16c1.18,1.3,1.21,1.25-1.68,2.56-2.26,1-2.26,1-3.39-.33-1-1.16-1.07-1.19-.74-.2.62,1.85.62,2.18,0,2.39-.33.12-1-.54-1.56-1.53s-1.26-1.74-1.62-1.74-.05.78.64,1.71c1,1.39,1.14,1.87.56,2.58-1,1.16-2.13,1.18-2.55.06a1.3,1.3,0,0,0-1-.87c-.45,0-.45.35,0,1.22.87,1.62.25,2.1-1.11.87s-2-1.16-1,.4.46,2.61-.68,1-2.17-1.39-1.07.29c.87,1.33.86,1.43-.36,2.29s-1.39.79-2.6-.35c-.75-.7-1.33-1-1.33-.61a1.33,1.33,0,0,0,.58,1c.69.43.69,1.44,0,1.44a3,3,0,0,1-1.38-.87c-1.29-1.29-1.85-1-.65.29a2.51,2.51,0,0,1,.76,1.79c-.22.66-3.94-2.78-3.94-3.65,0-.28-.23-.46-.58-.46-.64,0,.76,2.43,2.5,4.34,1.22,1.35.28,2-1.16.77-.83-.69-.88-.62-.49.59s.31,1.29-.72.74c-1.68-.9-1.81-.85-1.44.62.31,1.22.25,1.26-.7.46s-1-.75-.64.41c.44,1.39-.2,1.71-1.27.64s-.82.35.33,1.68l1.06,1.22,1.22-1.39a4,4,0,0,1,2-1.39c1.27,0,5.09,3.47,5.09,4.63s-4.17,4.43-7.06,5.3c-1.91.57-2.32.52-3.13-.44s-.86-1-.11.35c1.76,3.13,1.72,3.09,2.31,2.08.44-.75.77-.83,1.39-.32a2.15,2.15,0,0,1,.81,1.42,1.18,1.18,0,0,0,.72,1c.41.15.53.46.29.72s-1,0-1.68-.64c-1.16-1-1.22-1-.87-.06s.14,1-.78.69c-.69-.21-1.16-.08-1.16.32s-.23.48-.75.06a2.67,2.67,0,0,0-2-.29c-.87.22-1.38,0-1.62-.58a.87.87,0,0,0-1.1-.61,1,1,0,0,1-1.13-.32c-.21-.35-.14-.61.17-.61s.31-.64-.09-1.68c-.48-1.27-.45-1.91.14-2.63.43-.52,1-.86,1.36-.76.74.26,3.3-2.05,3.3-3,0-.75-3.39-.69-3.86.06-.14.22-.77-.12-1.41-.75-1.45-1.45-2.24-.93-.88.58.63.69.77,1.24.39,1.48s-.61.18-.61-.09-.26-.06-.55.41c-.46.72-.9.53-2.63-1.15-2.14-2.07-2.81-1.94-.85.16a4.35,4.35,0,0,1,1.13,1.68c0,.58-.83.61-1.39.06-.76-.76-3.24-.58-3.24.23,0,1.29-.69.89-3.94-2.28q-3.13-3-2.43-1.6a14.76,14.76,0,0,0,2.16,3c2.19,2.34.74,2-1.75-.41-1.16-1.12-2.24-1.76-2.44-1.44-.47.76-1.44.17-1.44-.87a.53.53,0,0,1,.78-.52c.58.21.71-.12.49-1.27s-.1-1.49.58-1.24.8,0,.61-1.07c-.4-2.13.71-1.62,1.78.81.94,2.14,4.18,5.78,4.68,5.27.16-.16-.74-1.36-2-2.69-2.09-2.2-2.26-2.59-1.94-4.66a5.27,5.27,0,0,1,1.3-2.92c.53-.37,1.82-1.24,2.92-2,3-1.94,3-3.1.12-1.61-5,2.57-11.53,10.31-10.75,12.8,1,3.33,7.39,5.42,13.7,4.53,5.15-.73,5-.77,4.67,1.78-.29,2-.09,2.49,1.52,4.11l1.85,1.85,4.95-.32c2.72-.17,5.24-.6,5.59-1,1.21-1.21,2.49-.69,3,1.22a7.59,7.59,0,0,0,3,3.59c4.94,3.46,13,2.93,26.45-1.73,4.17-1.45,9.2-3.08,11.29-3.66a81.68,81.68,0,0,0,14.18-5.58,115.47,115.47,0,0,1,16.5-6.13c2.08-.63,4.28-1.37,4.92-1.66s3.13-1.36,5.5-2.36c6.33-2.69,11.11-5.42,20.84-11.92,6.25-4.18,19.5-12.34,20-12.34a49.8,49.8,0,0,0,4.54-2.75c2.32-1.5,5.88-3.76,7.81-5a96.93,96.93,0,0,0,10.24-8.39c3.7-3.42,7.78-6.94,9.14-7.9a73.74,73.74,0,0,0,5.7-4.69,44.92,44.92,0,0,1,6.31-4.73c3.34-1.94,7.23-5.25,14.93-12.68l4.92-4.75-.09-7c-.08-6.25-.25-7.33-1.56-10-2.91-5.93-11.78-13.6-23.18-20.06-4.43-2.51-7.29-2.63-13.08-.55Zm28.85,15.51a18.56,18.56,0,0,0,2,4.17c1.42,2.11,3.91,10.77,3.89,13.54,0,1.33-.15,1.53-.59.87a4.56,4.56,0,0,1-.58-2.2c0-1.88-2.73-9.78-4.36-12.62a51.35,51.35,0,0,1-2.61-5.5L389,97.35l1.42,1.33a9.41,9.41,0,0,1,2.08,3.53Zm3.05,2c1.18,1.62,1.91,3.88,1.26,3.88-.47,0-3.07-4.11-3.07-4.86s.93-.23,1.81,1Zm3,6.48c1.31,2.72,1.29,3.92,0,1.74s-1.94-3.76-1.41-3.76c.25,0,.91.93,1.44,2Zm-8.9,3.82c.78,4.57.81,5.54.13,4.8-.89-1-2.14-7.06-1.88-9.2.18-1.51,1.17,1,1.75,4.4Zm10.29,5.3c-.16.41-.29.09-.29-.72s.13-1.13.29-.72a2.21,2.21,0,0,1,0,1.45Zm-8.68,4c-.18.48-.31.35-.35-.35s.11-.94.29-.75a1.19,1.19,0,0,1,.06,1.1Zm7.7-.43c0,.16-.23.4-.58.61s-.58.09-.58-.26a.58.58,0,0,1,.58-.61c.35,0,.58.1.58.26Zm-13.31,8.74c0,.46-.26.84-.58.84s-.58-.55-.58-1.19.27-1,.58-.84a1.5,1.5,0,0,1,.58,1.19ZM371.74,135c0,.31-.27.17-.58-.29a3.52,3.52,0,0,1-.58-1.45c0-.31.27-.17.58.29a3.52,3.52,0,0,1,.58,1.45ZM384,137c.33,0,.47-.52.31-1.16-.36-1.36-.22-1.41,1.46-.53,1.18.62,1.16.69-.69,2.32a7.18,7.18,0,0,1-2.08,1.51c-.41-.4-.7-5-.34-5.33s.48.41.57,1.39.45,1.79.78,1.79Zm-7.06,4.34a4.82,4.82,0,0,1,0,1.45c-.23,1.63-1-2-1-4.63l0-2.6.41,2.6c.23,1.45.47,2.86.55,3.18Zm-11.84-3.18a8.21,8.21,0,0,1,.73,3.94c-.2,2.18-.33,2-1.6-1.91-.41-1.27-.88-2.65-1-3.07-.56-1.51,1-.64,1.9,1Zm9.52,6.63c-.35.35-.55-.38-.55-2.05,0-3.07-.46-3.79-1.52-2.37-.67.89-.74.81-.77-.87,0-1.33.2-1.77.78-1.56a1.14,1.14,0,0,0,1.3-.46c.31-.47.64.64.9,3s.19,4-.14,4.31Zm-6.51-1.88c-.18.48-.31.35-.35-.35s.11-.94.29-.75a1.19,1.19,0,0,1,.06,1.1Zm1.33,2.49a1.42,1.42,0,0,1-.58,1.16c-.33.2-.58-.29-.58-1.16s.24-1.36.58-1.16a1.42,1.42,0,0,1,.58,1.16Zm-2.37,3.07c.08,1.76-.87,1.1-1.24-.87-.42-2.2.25-3.83.78-1.91a15,15,0,0,1,.46,2.78Zm6.42-2.81a1.13,1.13,0,0,1-.58.9c-.34.2-.58,0-.58-.55s.24-.9.58-.9a.53.53,0,0,1,.58.55Zm-2.05,1.77a.61.61,0,0,1-.26.87c-.31.19-.58-.06-.58-.52,0-1,.34-1.18.84-.35ZM193.77,207.61c.2.33.09.58-.26.58a.58.58,0,0,1-.61-.58c0-.35.1-.58.26-.58s.4.23.61.58Z"/><path class="cls-1" d="M372.06,89.13c.21.58.53.9.72.72s0-.64-.38-1c-.56-.56-.64-.49-.35.32Z"/><path class="cls-1" d="M374.81,89.68c.51.72,2,2.92,3.4,4.95,2.9,4.28,3.52,4.66,1.31.81-2.52-4.4-4-6.45-4.83-6.76-.61-.23-.58,0,.12,1Z"/><path class="cls-1" d="M369.43,90a2.29,2.29,0,0,0,.87,1.27c.46.37.87.42.87.12a2.29,2.29,0,0,0-.87-1.27c-.46-.37-.87-.42-.87-.12Z"/><path class="cls-1" d="M362.88,92.81a7.8,7.8,0,0,0,2,2.86A5.64,5.64,0,0,1,366.53,98a.7.7,0,0,0,.58.75c1,0,.6-.81-1.32-3a29.57,29.57,0,0,1-2.53-3.18c-.62-1-.65-1-.38.14Z"/><path class="cls-1" d="M374.37,92.6c.21.58.53.9.72.72s0-.64-.38-1c-.56-.56-.64-.49-.35.32Z"/><path class="cls-1" d="M371.75,92.72c0,.81,2.14,3.53,2.48,3.18.16-.16-.32-1-1.11-2s-1.38-1.49-1.38-1.16Z"/><path class="cls-1" d="M369.14,93.59c.21.35.45.58.61.58s.26-.23.26-.58a.58.58,0,0,0-.61-.58c-.35,0-.46.25-.26.58Z"/><path class="cls-1" d="M374.63,97.64a.58.58,0,0,0,.61.58c.35,0,.46-.25.26-.58s-.45-.58-.61-.58-.26.23-.26.58Z"/><path class="cls-1" d="M356.14,98.59a4.54,4.54,0,0,0,1.1,2c.62.75,1.14,1.06,1.16.69a4.54,4.54,0,0,0-1.1-2c-.62-.75-1.14-1.06-1.16-.69Z"/><path class="cls-1" d="M378.11,98.56a55.81,55.81,0,0,0,3.29,6c.11.14.31.1.5-.09s-.5-1.65-1.5-3.27c-1.68-2.72-2.29-3.41-2.29-2.6Z"/><path class="cls-1" d="M383.89,99.38a1.11,1.11,0,0,0,.58.87c.35.21.44,0,.24-.52-.39-1-.82-1.17-.82-.35Z"/><path class="cls-1" d="M376.17,100.24c.17.46.43.87.55.87s.23-.41.23-.87-.26-.87-.55-.87-.4.41-.23.87Z"/><path class="cls-1" d="M352.06,100.47a1.15,1.15,0,0,0,.58.93c.35.21.58.12.58-.23a1.15,1.15,0,0,0-.58-.93c-.35-.21-.58-.12-.58.23Z"/><path class="cls-1" d="M382.53,101.43c.52.81,1.06,1.37,1.18,1.24.4-.41-.92-2.72-1.56-2.72-.32,0-.15.67.38,1.48Z"/><path class="cls-1" d="M350.33,101.69a1.11,1.11,0,0,0,.58.87c.35.21.44,0,.24-.52-.39-1-.82-1.17-.82-.35Z"/><path class="cls-1" d="M361.61,102.85c.21.35.45.58.61.58s.26-.23.26-.58a.58.58,0,0,0-.61-.58c-.35,0-.46.25-.26.58Z"/><path class="cls-1" d="M374.63,102.38c0,.76,1.85,3.88,2.72,4.58.69.56.57.1-.39-1.52-1.44-2.43-2.33-3.6-2.33-3.07Z"/><path class="cls-1" d="M298.52,104.05c-12.79,2.07-21.48,4.17-25.52,6.18-1.25.62-5.5,2.24-9.49,3.61a61,61,0,0,0-8.77,3.56,5.88,5.88,0,0,1-2.17,1.07,14.26,14.26,0,0,0-3.44,1.74,15,15,0,0,1-3.39,1.74,8.88,8.88,0,0,0-2.58,1.36,12.91,12.91,0,0,1-4.66,1.71,13.43,13.43,0,0,0-4.8,1.79,17.35,17.35,0,0,1-3.39,1.82c-.71.21-2,.7-3,1.13-4.92,2.13-6,2.62-9,3.92a42.47,42.47,0,0,1-6.37,2.13,18.85,18.85,0,0,0-4.54,1.59c-1.21.77-1.33,1.22-1.1,4,.25,3.07.7,4.25,1.36,3.59.16-.16,0-1-.43-1.85-.51-1.1-.53-1.68-.09-2a2.85,2.85,0,0,0,.9-1.56c.21-.93.47-.67,1.3,1.3a6.41,6.41,0,0,0,1.45,2.46c.56,0,0-2.82-.64-3.21a1.4,1.4,0,0,1-.52-1.13c0-.91,3.7-2.31,4.63-1.74.33.2.58.09.58-.25s.43-.62,1-.64a15.71,15.71,0,0,0,3.33-.84c2.2-.78,3.76-.39,3.76.93,0,.67-3.7,2.18-7.18,2.92-1.56.33-2.55.79-2.2,1a4.9,4.9,0,0,1,1.22,1.82l.58,1.42,0-1.5c0-1.23.43-1.62,2.29-2.17a27.73,27.73,0,0,0,3.88-1.5c1.79-.92,2.55-.71,2.56.72,0,1.27,3.27,7.75,4.21,8.35.49.32.41.45-.29.45-1.08,0-3.67-2.84-4.23-4.63-.31-1-1.44-1.67-1.44-.87a14.93,14.93,0,0,0,2.28,3.94c.42.52.6,1.17.4,1.39-.44.45-3.45-2.55-3.95-3.94-.17-.46-.47-.64-.72-.41s.14,1.33.86,2.49c1.54,2.49,1.15,3.4-.6,1.39-1.21-1.39-1.21-1.39-.86-.09.25.93.09,1.3-.55,1.3a.85.85,0,0,1-.9-.87c0-.46-.28-.87-.61-.87s-.46.25-.26.58-.52.49-2.14.32l-2.49-.26,2,1c1.5.71,3.53.92,7.81.84l5.79-.12-1.74,1.16c-3,2-1,1.29,4.11-1.47,2.72-1.46,5.14-2.49,5.41-2.32s.64-.09.84-.61a.93.93,0,0,1,1.19-.61c.52.2.74.05.58-.38-.26-.69,3-3.75,6.22-5.87l1.56-1-2-2.89a11.51,11.51,0,0,1-2-4c0-.58-.27-1.1-.58-1.1-.62,0,.79,4.28,2,6.19,1.06,1.62,1.06,1.91,0,1.91-.46,0-.87.23-.87.49s-.69.85-1.5,1.27c-1.39.72-1.59.67-2.6-.64l-1.1-1.42.61,1.68c1.21,3.36-.83,5.17-2.67,2.37-.53-.81-1.24-1.42-1.61-1.39s-.41.16.06.35a1.23,1.23,0,0,1,.72,1.1c0,.46.25.81.58.81,1,0,.64,1.41-.58,2.17-1,.65-1.35.52-2.92-1.16s-1.72-1.73-1.39-.52a1.66,1.66,0,0,1-.41,1.91c-.57.4-.43.45.49.19,1.85-.52,2.26.77.46,1.46-1.29.49-1.71.34-2.91-1-1.74-2-2.76-4.11-4.21-8.62-1.2-3.76-1.1-4.67.4-3.47.69.56.78.56.45,0-.7-1.16.12-2.12,1.11-1.3.66.54.81.49.81-.26,0-.52.25-.93.58-.93a.58.58,0,0,1,.58.61c0,.35.25.46.58.26a.72.72,0,0,0,.2-1c-.24-.41.06-.53.87-.32s1.24.11,1.24-.14.75-.64,1.74-.87,1.74-.74,1.74-1.19.52-1.06,1.22-1.44c1.35-.73,2.56,0,3.13,1.82.18.58.59.95.86.78s.29-.93,0-1.74c-.43-1.1-.35-1.42.32-1.42.46,0,.87-.2.87-.43s.67-.75,1.53-1.16c1.33-.63,1.64-.59,2.34.29s.78.9.46-.26,0-1.45,1.33-2.14c1.56-.81,1.72-.78,2.32.41s.61,1.16.3-.35c-.38-1.85.65-2.16,1.93-.58.77,1,.81.93.46-.35s-.22-1.35.84-1.07,1.22.06,1.22-.78c0-1.22.9-1.45,1.34-.35.15.38.3.2.34-.38,0-.8.35-1,1.22-.78s1.16,0,1.16-.55.38-.72,1.19-.46,1.13.13,1-.41.26-.74.84-.69,1-.14,1-.43.43-.53,1-.55a12.2,12.2,0,0,0,3.33-1.13,13.42,13.42,0,0,1,3-1.13c.41,0,.72-.23.72-.49s3.18-1.5,7.52-2.75c.15,0,.69-.25,1.16-.43A14.47,14.47,0,0,1,281,109a10.41,10.41,0,0,0,2.72-.9c.81-.43,1.3-.45,1.54-.06.59,1,1.41.64,1-.41s-.27-.95.65-.2,1.12.71,1.5.06a.85.85,0,0,1,1.13-.35,1.17,1.17,0,0,0,1.36-.14c.86-.72,9-2.05,12.73-2.1,2.78,0,3.25-.36,2-1.36-.45-.35-3-.18-7.06.49Z"/><path class="cls-1" d="M345.12,103.37a3.69,3.69,0,0,0,1.16,1.5,3.52,3.52,0,0,1,1.17,1.68c0,.87,2.26,3.66,2.27,2.84,0-1-3-5.85-3.91-6.2-.41-.17-.69-.09-.69.18Z"/><path class="cls-1" d="M388.86,104.29a28.7,28.7,0,0,0,1.75,4.75,30.69,30.69,0,0,1,2,6.37c.32,1.85.89,5.24,1.27,7.55s1,4.2,1.27,4.2c.67,0,0-9.14-.71-10.07a16.56,16.56,0,0,1-1.25-3.82c-.8-3.41-4.94-12-4.3-9Z"/><path class="cls-1" d="M372.33,103.72c0,.75,1.69,2.86,2,2.54.13-.13-.27-.86-.9-1.67s-1.13-1.19-1.12-.87Z"/><path class="cls-1" d="M386.59,104.29c.17.46.43.87.55.87s.23-.41.23-.87-.26-.87-.55-.87-.4.41-.23.87Z"/><path class="cls-1" d="M378.74,104.58a4.31,4.31,0,0,0,.83,2c1.09,1.44,1.08.52,0-1.39-.46-.81-.82-1.06-.82-.58Z"/><path class="cls-1" d="M342.8,104.82a8.75,8.75,0,0,0,1.16,1.5c1.29,1.49,1.57.87.34-.75-.66-.87-1.49-1.29-1.49-.75Z"/><path class="cls-1" d="M357.56,105.16c.21.35.45.58.61.58s.26-.23.26-.58a.58.58,0,0,0-.61-.58c-.35,0-.46.25-.26.58Z"/><path class="cls-1" d="M382.42,106.09a29.3,29.3,0,0,1,.9,3,8.28,8.28,0,0,0,1.39,3,3.54,3.54,0,0,1,.93,1.71.67.67,0,0,0,.61.67c.35,0,.49-.2.34-.46a63.27,63.27,0,0,1-3.26-7.64,1.41,1.41,0,0,0-.67-.93c-.46-.28-.53-.06-.23.69Z"/><path class="cls-1" d="M353.28,106.67c0,.69.16.82.35.35a1.19,1.19,0,0,0-.06-1.1c-.18-.18-.32.17-.29.75Z"/><path class="cls-1" d="M368.56,106.32c.21.35.45.58.61.58s.26-.23.26-.58a.58.58,0,0,0-.61-.58c-.35,0-.46.25-.26.58Z"/><path class="cls-1" d="M358.75,107.07c.21.58.53.9.72.72s0-.64-.38-1c-.56-.56-.64-.49-.35.32Z"/><path class="cls-1" d="M371.75,107.59c0,.81,2.29,3.94,2.31,3.18s-1.68-3.88-2-3.88c-.17,0-.28.29-.28.69Z"/><path class="cls-1" d="M337,108.64a1.11,1.11,0,0,0,.58.87c.35.21.44,0,.24-.52-.39-1-.82-1.17-.82-.35Z"/><path class="cls-1" d="M369.71,108.64c.21.35.45.58.61.58s.26-.23.26-.58a.58.58,0,0,0-.61-.58c-.35,0-.46.25-.26.58Z"/><path class="cls-1" d="M375.21,108.58a1.15,1.15,0,0,0,.58.93c.35.21.58.12.58-.23a1.15,1.15,0,0,0-.58-.93c-.35-.21-.58-.12-.58.23Z"/><path class="cls-1" d="M334.14,108.92a7.61,7.61,0,0,0,1.43,2.6c.81,1.1,1.45,1.61,1.44,1.16,0-1-2.84-4.7-2.87-3.76Z"/><path class="cls-1" d="M359.59,109.16a1.15,1.15,0,0,0,.58.93c.35.21.58.12.58-.23a1.15,1.15,0,0,0-.58-.93c-.35-.21-.58-.12-.58.23Z"/><path class="cls-1" d="M378.69,110a1.59,1.59,0,0,0,.58,1.22c.31.19.58-.06.58-.52a1.59,1.59,0,0,0-.58-1.22c-.31-.19-.58.06-.58.52Z"/><path class="cls-1" d="M365.37,110.31a1.15,1.15,0,0,0,.58.93c.35.21.58.12.58-.23a1.15,1.15,0,0,0-.58-.93c-.35-.21-.58-.12-.58.23Z"/><path class="cls-1" d="M332.71,111.93c1.32,2,3.73,4.64,3.73,4.05s-3.68-5.56-4.23-5.59c-.29,0-.07.67.5,1.54Z"/><path class="cls-1" d="M339,112a5.48,5.48,0,0,0,1.22,1.88c.56,0,.17-.93-1-2.32l-1.18-1.45L339,112Z"/><path class="cls-1" d="M376.37,111.12a2.44,2.44,0,0,0,.87,1.56c.69.56.87.52.87-.17a2.44,2.44,0,0,0-.87-1.56c-.69-.56-.87-.52-.87.17Z"/><path class="cls-1" d="M341.07,111.41a2.36,2.36,0,0,0,.93,1.33c.78.63.89.58.71-.35-.21-1.1-1.64-2-1.64-1Z"/><path class="cls-1" d="M276.24,112.6c.38.75.85,1.2,1,1s-.12-.8-.69-1.36c-1-.95-1-.93-.35.35Z"/><path class="cls-1" d="M361.06,112.28c.21.58.53.9.72.72s0-.64-.38-1c-.56-.56-.64-.49-.35.32Z"/><path class="cls-1" d="M374.06,111.65c0,1.07,2.19,6.31,3.22,7.7a11.5,11.5,0,0,1,1.7,3.76c.66,3.24,2.13,7.49,2.71,7.86s0-3.63-1.05-5.77a8.13,8.13,0,0,1-.8-2.49c0-1-2.17-5.81-2.84-6.22a4.09,4.09,0,0,1-.89-2c-.31-1.39-2.06-3.8-2.06-2.84Z"/><path class="cls-1" d="M326,114a1.79,1.79,0,0,0,.58,1.34c.74.46.74-.3,0-1.46-.5-.77-.56-.75-.56.12Z"/><path class="cls-1" d="M337.65,113.84a4.31,4.31,0,0,0,.83,2c1.09,1.44,1.08.52,0-1.39-.46-.81-.82-1.06-.82-.58Z"/><path class="cls-1" d="M370,114.28a3.52,3.52,0,0,0,.58,1.3c.46.69.58.61.58-.43,0-.69-.27-1.3-.58-1.3s-.58.17-.58.43Z"/><path class="cls-1" d="M377.81,114.89c.66,1.74,2.91,4.76,3.11,4.17a4.22,4.22,0,0,0-1-2.26,6.66,6.66,0,0,1-1.22-2.32.64.64,0,0,0-.64-.64c-.35,0-.46.46-.24,1Z"/><path class="cls-1" d="M323.7,115a.58.58,0,0,0,.61.58c.35,0,.46-.25.26-.58s-.45-.58-.61-.58-.26.23-.26.58Z"/><path class="cls-1" d="M273.71,117.14c.29,2.32-.45,3.45-1.13,1.74-.17-.42-.3-.29-.33.35a1.09,1.09,0,0,1-1.95.58c-.14-.24-.18-.14-.09.2s-.29.8-.81,1-1.43.47-1.94.67c-.66.26-1.05,0-1.27-1a7.91,7.91,0,0,0-1.19-2.49c-.75-1-.75-.81,0,1.45.83,2.49.81,2.65-.41,3.63q-2.26,1.81-2.26.08a8.31,8.31,0,0,0-1-2.72c-1.39-2.68-1.73-.87-.36,1.91l1.14,2.32L260.41,126l-1.77,1.13-.81-2.43c-.9-2.72-2.3-4.59-1.61-2.14,1.7,6,1,7.95-.87,2.55-.55-1.56-1-2.3-1.05-1.65a9,9,0,0,0,1,3.33c.59,1.16.86,2.29.58,2.46-.86.53-1.44-.15-2.26-2.64s-1.73-3.58-1.73-2.14,1.64,4.91,2.43,5.21c.53.2.41.56-.41,1.18-1.1.85-1.18.81-1.62-.81-.25-.93-.7-1.71-1-1.71-.72,0-.7.23.11,2s-.11,3.89-2.25,4.86c-1.74.79-1.91.78-1.91-.12a5.14,5.14,0,0,0-1.19-2.14l-1.19-1.45.41,1.45a10.52,10.52,0,0,0,1.36,2.78c1.4,2,3.21,1.21,7.84-3.25,5.83-5.62,10.59-8.61,16.67-10.5a6.26,6.26,0,0,0,2.46-1.21,2.11,2.11,0,0,1,1.59-.55,28.53,28.53,0,0,0,6.66-2c.3-.18-1.39-3.16-1.79-3.16s-.32.23-.12.58a1.4,1.4,0,0,1-.06,1.24c-.28.46-.67.32-1.24-.43-.82-1.08-.83-1.07-.55.2a1.54,1.54,0,0,1-.75,1.87c-1.9,1-2.76.64-3.38-1.56l-.62-2.2.31,2.43Z"/><path class="cls-1" d="M318.52,115.29a21.92,21.92,0,0,0,2.29,4.34c1.28,2.08,2.32,3.37,2.32,2.89a10,10,0,0,0-1.59-3.27l-2.29-3.47c-.38-.58-.71-.8-.72-.49Z"/><path class="cls-1" d="M333.31,116.45a5,5,0,0,0,1.16,1.45c.13,0-.06-.64-.43-1.45s-.88-1.45-1.16-1.45-.08.64.43,1.45Z"/><path class="cls-1" d="M368.33,115.93c0,.69.16.82.35.35a1.19,1.19,0,0,0-.06-1.1c-.18-.18-.32.17-.29.75Z"/><path class="cls-1" d="M321.39,116a4.87,4.87,0,0,0,1.53,2c1.39,1.26,1.47,1.27.9.17-.75-1.45-2.44-2.93-2.44-2.14Z"/><path class="cls-1" d="M324.86,116.56a3.51,3.51,0,0,0,.58,1.33c.51.77.58.75.58-.12a1.75,1.75,0,0,0-.58-1.33c-.35-.21-.58-.16-.58.12Z"/><path class="cls-1" d="M331,116.91c.21.58.53.9.72.72s0-.64-.38-1c-.56-.56-.64-.49-.35.32Z"/><path class="cls-1" d="M269.35,117.66c0,.69.16.82.35.35a1.19,1.19,0,0,0-.06-1.1c-.18-.18-.32.17-.29.75Z"/><path class="cls-1" d="M370.93,117.14c-.19.19.35,1.62,1.2,3.18,2,3.65,2.47,3.13.59-.64-.81-1.62-1.6-2.74-1.79-2.55Z"/><path class="cls-1" d="M317.34,118.47a.58.58,0,0,0,.61.58c.35,0,.46-.25.26-.58s-.45-.58-.61-.58-.26.23-.26.58Z"/><path class="cls-1" d="M328.91,118.19c0,.64,1.85,3.82,2.08,3.59s-1.45-3.88-1.85-3.88c-.14,0-.23.12-.23.29Z"/><path class="cls-1" d="M364.27,118.82c0,.69.16.82.35.35a1.19,1.19,0,0,0-.06-1.1c-.18-.18-.32.17-.29.75Z"/><path class="cls-1" d="M368.85,118.19a3.52,3.52,0,0,0,.58,1.45c.31.46.58.6.58.29a3.52,3.52,0,0,0-.58-1.45c-.31-.46-.58-.6-.58-.29Z"/><path class="cls-1" d="M326.6,118.88a3.51,3.51,0,0,0,.58,1.33c.51.77.58.75.58-.12a1.75,1.75,0,0,0-.58-1.33c-.35-.21-.58-.16-.58.12Z"/><path class="cls-1" d="M348.59,119.34c0,.46.26.87.55.87s.4-.41.23-.87-.43-.87-.55-.87-.23.41-.23.87Z"/><path class="cls-1" d="M297.08,119.63a.58.58,0,0,0,.61.58c.35,0,.46-.25.26-.58s-.45-.58-.61-.58-.26.23-.26.58Z"/><path class="cls-1" d="M257.72,119.92a3.52,3.52,0,0,0,.58,1.45c.31.46.58.6.58.29a3.52,3.52,0,0,0-.58-1.45c-.31-.46-.58-.6-.58-.29Z"/><path class="cls-1" d="M295.08,120.38c.21.58.53.9.72.72s0-.64-.38-1c-.56-.56-.64-.49-.35.32Z"/><path class="cls-1" d="M324.71,120.79c.37,1.45,1.31,2.15,1.31,1a2.4,2.4,0,0,0-.81-1.53c-.66-.54-.75-.43-.5.55Z"/><path class="cls-1" d="M332.38,120.21a.58.58,0,1,0,.58-.58.55.55,0,0,0-.58.58Z"/><path class="cls-1" d="M262.93,121.48c0,1,1,1.93,1.62,1.38.18-.18-.12-.8-.64-1.32-.93-.93-1-.93-1-.06Z"/><path class="cls-1" d="M286.08,121.31a1.15,1.15,0,0,0,.58.93c.35.21.58.12.58-.23a1.15,1.15,0,0,0-.58-.93c-.35-.21-.58-.12-.58.23Z"/><path class="cls-1" d="M362.48,121.95a3.86,3.86,0,0,0,.58,1.74c.5.75.58.75.58,0a3.86,3.86,0,0,0-.58-1.74c-.5-.75-.58-.75-.58,0Z"/><path class="cls-1" d="M304,122.35c0,.69,1.65,2.73,1.95,2.43.13-.13-.26-.84-.87-1.59s-1.09-1.13-1.08-.84Z"/><path class="cls-1" d="M314.44,122.35a3.51,3.51,0,0,0,.58,1.33c.51.77.58.75.58-.12a1.75,1.75,0,0,0-.58-1.33c-.35-.21-.58-.16-.58.12Z"/><path class="cls-1" d="M328.33,122.53a1.11,1.11,0,0,0,.58.87c.35.21.44,0,.24-.52-.39-1-.82-1.17-.82-.35Z"/><path class="cls-1" d="M370.61,122.35a7.05,7.05,0,0,0,.55,1.62c.5,1.1.52,1.1.55-.12a2.09,2.09,0,0,0-.55-1.62c-.35-.21-.57-.16-.55.12Z"/><path class="cls-1" d="M258.88,123.34a1.59,1.59,0,0,0,.58,1.22c.31.19.58-.06.58-.52a1.59,1.59,0,0,0-.58-1.22c-.31-.19-.58.06-.58.52Z"/><path class="cls-1" d="M320.24,123.28c0,.69,2.25,3.88,2.27,3.24a13.23,13.23,0,0,0-2.05-4c-.12,0-.23.35-.22.75Z"/><path class="cls-1" d="M353.22,123.68a.58.58,0,1,0,.58-.58.55.55,0,0,0-.58.58Z"/><path class="cls-1" d="M358.43,123.92a1.59,1.59,0,0,0,.58,1.22c.31.19.58-.06.58-.52a1.59,1.59,0,0,0-.58-1.22c-.31-.19-.58.06-.58.52Z"/><path class="cls-1" d="M332.09,124.84c.21.35.45.58.61.58s.26-.23.26-.58a.58.58,0,0,0-.61-.58c-.35,0-.46.25-.26.58Z"/><path class="cls-1" d="M350.9,124.84c0,.93,2.34,5.36,2.66,5,.16-.16-.26-1.5-.91-3-1.18-2.6-1.75-3.29-1.75-2.08Z"/><path class="cls-1" d="M356.75,124.84a6.14,6.14,0,0,0,.52,2c.34.75.52.85.52.29a6.14,6.14,0,0,0-.52-2c-.34-.75-.52-.85-.52-.29Z"/><path class="cls-1" d="M250.25,126.35c0,.69.16.82.35.35a1.19,1.19,0,0,0-.06-1.1c-.18-.18-.32.17-.29.75Z"/><path class="cls-1" d="M335.71,126.61c.21.75.48,1,.61.61a1.54,1.54,0,0,0-.38-1.36c-.44-.44-.5-.23-.23.75Z"/><path class="cls-1" d="M348.91,126.17c.21.58.53.9.72.72s0-.64-.38-1c-.56-.56-.64-.49-.35.32Z"/><path class="cls-1" d="M354.43,126a6.19,6.19,0,0,0,.81,2.32c.45.81.81,1.06.81.58a6.18,6.18,0,0,0-.81-2.32c-.45-.81-.81-1.06-.81-.58Z"/><path class="cls-1" d="M247.88,126.58a3.86,3.86,0,0,0,.58,1.74c.5.75.58.75.58,0a3.86,3.86,0,0,0-.58-1.74c-.5-.75-.58-.75-.58,0Z"/><path class="cls-1" d="M282.35,126.75c.21.58.53.9.72.72s0-.64-.38-1c-.56-.56-.64-.49-.35.32Z"/><path class="cls-1" d="M301.71,126.58a.58.58,0,0,0,.61.58c.35,0,.46-.25.26-.58s-.45-.58-.61-.58-.26.23-.26.58Z"/><path class="cls-1" d="M364.22,126.46a72.85,72.85,0,0,0,3.35,10c.72,1.56,1,1.79,1.16,1a9.9,9.9,0,0,0-1.19-4.05,55.52,55.52,0,0,1-2.14-5.21c-.66-2-1.19-2.77-1.19-1.68Z"/><path class="cls-1" d="M277.11,127.16c.21.35.45.58.61.58s.26-.23.26-.58a.58.58,0,0,0-.61-.58c-.35,0-.46.25-.26.58Z"/><path class="cls-1" d="M346.27,127.13a1.13,1.13,0,0,0,.58.9c.34.2.58,0,.58-.55s-.24-.9-.58-.9a.53.53,0,0,0-.58.55Z"/><path class="cls-1" d="M300,127.71a1.13,1.13,0,0,0,.58.9c.34.2.58,0,.58-.55s-.24-.9-.58-.9a.53.53,0,0,0-.58.55Z"/><path class="cls-1" d="M344,128.29a1.13,1.13,0,0,0,.58.9c.34.2.58,0,.58-.55s-.24-.9-.58-.9a.53.53,0,0,0-.58.55Z"/><path class="cls-1" d="M349.75,128.6c0,.46.26.87.55.87s.4-.41.23-.87-.43-.87-.55-.87-.23.41-.23.87Z"/><path class="cls-1" d="M236.68,129.18c.17.46.43.87.55.87s.23-.41.23-.87-.26-.87-.55-.87-.4.41-.23.87Z"/><path class="cls-1" d="M243.83,129.15a1.5,1.5,0,0,0,.58,1.19c.31.19.58-.2.58-.84s-.27-1.19-.58-1.19-.58.38-.58.84Z"/><path class="cls-1" d="M283.56,129.18c.17.46.43.87.55.87s.23-.41.23-.87-.26-.87-.55-.87-.4.41-.23.87Z"/><path class="cls-1" d="M361.15,128.66c-.48.48.06,1.39.81,1.39.28,0,.52-.41.52-.87,0-.93-.67-1.19-1.33-.52Z"/><path class="cls-1" d="M278.56,129.47a1.11,1.11,0,0,0,.58.87c.35.21.44,0,.24-.52-.39-1-.82-1.17-.82-.35Z"/><path class="cls-1" d="M341.64,129.47a.58.58,0,1,0,.58-.58.55.55,0,0,0-.58.58Z"/><path class="cls-1" d="M347.43,129a13.48,13.48,0,0,0,.9,2.29c.88,1.91.89,1.91.54.2-.31-1.5-1.44-3.45-1.44-2.49Z"/><path class="cls-1" d="M249,130.11a4,4,0,0,0,.9,2c.86,1.08.88,1.07.51-.32C250,130,249,128.88,249,130.11Z"/><path class="cls-1" d="M281.45,130.05a.58.58,0,0,0,.61.58c.35,0,.46-.25.26-.58s-.45-.58-.61-.58-.26.23-.26.58Z"/><path class="cls-1" d="M234.57,130.57a1.15,1.15,0,0,0,.58.93c.35.21.58.12.58-.23a1.15,1.15,0,0,0-.58-.93c-.35-.21-.58-.12-.58.23Z"/><path class="cls-1" d="M337,130.86a1.59,1.59,0,0,0,.58,1.22c.31.19.58-.06.58-.52a1.59,1.59,0,0,0-.58-1.22c-.31-.19-.58.06-.58.52Z"/><path class="cls-1" d="M345.12,130.46a3.51,3.51,0,0,0,.58,1.33c.51.77.58.75.58-.12a1.75,1.75,0,0,0-.58-1.33c-.35-.21-.58-.16-.58.12Z"/><path class="cls-1" d="M358.72,130.63c.21.35.45.58.61.58s.26-.23.26-.58a.58.58,0,0,0-.61-.58c-.35,0-.46.25-.26.58Z"/><path class="cls-1" d="M232.83,131.64a3.52,3.52,0,0,0,.58,1.3c.46.69.58.61.58-.43,0-.69-.27-1.3-.58-1.3s-.58.17-.58.43Z"/><path class="cls-1" d="M239.78,131.5a3.52,3.52,0,0,0,.58,1.45c.31.46.58.6.58.29a3.52,3.52,0,0,0-.58-1.45c-.31-.46-.58-.6-.58-.29Z"/><path class="cls-1" d="M267,131.44a3.09,3.09,0,0,0,.87,1c.71.6.8.55.5-.26s-1.37-1.35-1.37-.69Z"/><path class="cls-1" d="M309.23,132.34a1.13,1.13,0,0,0,.58.9c.34.2.58,0,.58-.55s-.24-.9-.58-.9a.53.53,0,0,0-.58.55Z"/><path class="cls-1" d="M335.34,132.71c0,.69.16.82.35.35a1.19,1.19,0,0,0-.06-1.1c-.18-.18-.32.17-.29.75Z"/><path class="cls-1" d="M247.88,132.89a1.15,1.15,0,0,0,.58.93c.35.21.58.12.58-.23a1.15,1.15,0,0,0-.58-.93c-.35-.21-.58-.12-.58.23Z"/><path class="cls-1" d="M276,133.23c.17.46.59.87.9.87s.3-.35-.12-.87a3.17,3.17,0,0,0-.9-.87c-.11,0-.05.41.12.87Z"/><path class="cls-1" d="M333,133.78c0,.52.24.9.58.9a.53.53,0,0,0,.58-.55,1.13,1.13,0,0,0-.58-.9c-.34-.2-.58,0-.58.55Z"/><path class="cls-1" d="M352.06,133.35a5.37,5.37,0,0,0,1.07,2,14.21,14.21,0,0,1,1.75,3.41c.82,2.43,2.33,5.18,2.37,4.28s-2.82-7.23-4.05-8.8c-.64-.81-1.14-1.19-1.14-.87Z"/><path class="cls-1" d="M229.42,134.45c0,.69.16.82.35.35a1.19,1.19,0,0,0-.06-1.1c-.18-.18-.32.17-.29.75Z"/><path class="cls-1" d="M261.19,134.07c0,.26.41.64.87.81s.87.09.87-.17-.41-.64-.87-.81-.87-.09-.87.17Z"/><path class="cls-1" d="M269.09,134.39c.17.46.59.87.9.87s.3-.35-.12-.87a3.17,3.17,0,0,0-.9-.87c-.11,0-.05.41.12.87Z"/><path class="cls-1" d="M287.56,134.28c.21.58.53.9.72.72s0-.64-.38-1c-.56-.56-.64-.49-.35.32Z"/><path class="cls-1" d="M305.76,134a1.15,1.15,0,0,0,.58.93c.35.21.58.12.58-.23a1.15,1.15,0,0,0-.58-.93c-.35-.21-.58-.12-.58.23Z"/><path class="cls-1" d="M349.8,134.45c0,.69.16.82.35.35a1.19,1.19,0,0,0-.06-1.1c-.18-.18-.32.17-.29.75Z"/><path class="cls-1" d="M356.5,136c.93,2.72,2.34,4.59,1.62,2.14-.48-1.62-1.94-4.63-2.24-4.63a7.15,7.15,0,0,0,.62,2.49Z"/><path class="cls-1" d="M241,134.68c0,1,1.57,3.23,2,2.84.15-.16-.23-1.07-.85-2s-1.12-1.31-1.11-.84Z"/><path class="cls-1" d="M338.75,135.26a1.11,1.11,0,0,0,.58.87c.35.21.44,0,.24-.52-.39-1-.82-1.17-.82-.35Z"/><path class="cls-1" d="M347.49,135.61c0,.69.16.82.35.35a1.19,1.19,0,0,0-.06-1.1c-.18-.18-.32.17-.29.75Z"/><path class="cls-1" d="M285.5,135.84a.58.58,0,0,0,.61.58c.35,0,.46-.25.26-.58s-.45-.58-.61-.58-.26.23-.26.58Z"/><path class="cls-1" d="M351.19,136.27c.23.57.74,2.11,1.16,3.5a12.84,12.84,0,0,0,1.33,3.18,17.79,17.79,0,0,1,1.53,4,11.86,11.86,0,0,0,1.24,3.33c.38,0-.39-4.63-1-5.79-.24-.49-.7-1.5-1-2.32-2.12-5-3-6.95-3.33-6.95s-.17.43.06,1Z"/><path class="cls-1" d="M225.69,136.71c.17.46.43.87.55.87s.23-.41.23-.87-.26-.87-.55-.87-.4.41-.23.87Z"/><path class="cls-1" d="M283.56,136.71c.17.46.59.87.9.87s.3-.35-.12-.87a3.17,3.17,0,0,0-.9-.87c-.11,0-.05.41.12.87Z"/><path class="cls-1" d="M302.58,136.42c.21.35.45.58.61.58s.26-.23.26-.58a.58.58,0,0,0-.61-.58c-.35,0-.46.25-.26.58Z"/><path class="cls-1" d="M230.58,137.34c0,.69.16.82.35.35a1.19,1.19,0,0,0-.06-1.1c-.18-.18-.32.17-.29.75Z"/><path class="cls-1" d="M332.44,137.34c0,.69.16.82.35.35a1.19,1.19,0,0,0-.06-1.1c-.18-.18-.32.17-.29.75Z"/><path class="cls-1" d="M240.16,137.86c.17.46.59.87.9.87s.3-.35-.12-.87a3.17,3.17,0,0,0-.9-.87c-.11,0-.05.41.12.87Z"/><path class="cls-1" d="M281.77,137.75c.21.58.53.9.72.72s0-.64-.38-1c-.56-.56-.64-.49-.35.32Z"/><path class="cls-1" d="M348.6,137.4a4.55,4.55,0,0,0,.52,1.74c1.25,2.32,3.52,7.89,3.52,8.62s.93,1.06,1.41.29c.17-.28-.08-.85-.54-1.22s-.73-.91-.58-1.16,0-.81-.49-1.27a7,7,0,0,1-1.17-2.84c-.39-2-2.64-5.54-2.66-4.17Z"/><path class="cls-1" d="M274.51,138.15a.58.58,0,0,0,.61.58c.35,0,.46-.25.26-.58s-.45-.58-.61-.58-.26.23-.26.58Z"/><path class="cls-1" d="M280.09,139c.17.46.43.87.55.87s.23-.41.23-.87-.26-.87-.55-.87-.4.41-.23.87Z"/><path class="cls-1" d="M322.92,139c.17.46.43.87.55.87s.23-.41.23-.87-.26-.87-.55-.87-.4.41-.23.87Z"/><path class="cls-1" d="M325.44,138.44a3.52,3.52,0,0,0,.58,1.45c.31.46.58.6.58.29a3.52,3.52,0,0,0-.58-1.45c-.31-.46-.58-.6-.58-.29Z"/><path class="cls-1" d="M343.44,138.44a11.45,11.45,0,0,0,1.42,2.89c.78,1.27,1.42,2.05,1.42,1.74a11.46,11.46,0,0,0-1.42-2.89c-.78-1.27-1.42-2.05-1.42-1.74Z"/><path class="cls-1" d="M231.1,138.91a18.06,18.06,0,0,0,1.74,3.15c1,1.5,1.74,2.43,1.74,2.05a9.48,9.48,0,0,0-1.48-2.89c-1.72-2.55-2-2.86-2-2.32Z"/><path class="cls-1" d="M236.31,139.6c0,.75,1.69,2.86,2,2.54.13-.13-.27-.86-.9-1.67s-1.13-1.19-1.12-.87Z"/><path class="cls-1" d="M270.45,139.86a1.13,1.13,0,0,0,.58.9c.34.2.58,0,.58-.55s-.24-.9-.58-.9a.53.53,0,0,0-.58.55Z"/><path class="cls-1" d="M273.43,140.73c.37.81.9,1.48,1.19,1.48.61,0-.41-2.06-1.27-2.6-.34-.21-.3.25.09,1.12Z"/><path class="cls-1" d="M288.4,139.54a3.09,3.09,0,0,0,.87,1c.71.6.8.55.5-.26s-1.37-1.35-1.37-.69Z"/><path class="cls-1" d="M320.87,140.24c0,.69.16.82.35.35a1.19,1.19,0,0,0-.06-1.1c-.18-.18-.32.17-.29.75Z"/><path class="cls-1" d="M341.59,140.58c1.5,3.82,2.86,6.42,2.9,5.5,0-1.27-2-6-2.84-6.47-.38-.23-.4.11-.06,1Z"/><path class="cls-1" d="M222.13,141c.21.35.45.58.61.58s.26-.23.26-.58a.58.58,0,0,0-.61-.58c-.35,0-.46.25-.26.58Z"/><path class="cls-1" d="M261.51,141.22c.21.58.53.9.72.72s0-.64-.38-1c-.56-.56-.64-.49-.35.32Z"/><path class="cls-1" d="M268.52,141.34c.17.46.55.87.81.87s.34-.41.17-.87-.55-.87-.81-.87-.34.41-.17.87Z"/><path class="cls-1" d="M305.21,141.34c.39.46.86.73,1,.58.39-.39-.46-1.45-1.16-1.45-.35,0-.29.35.14.87Z"/><path class="cls-1" d="M318.49,141a1.11,1.11,0,0,0,.58.87c.35.21.44,0,.24-.52-.39-1-.82-1.17-.82-.35Z"/><path class="cls-1" d="M219.52,141.57a1.15,1.15,0,0,0,.58.93c.35.21.58.12.58-.23a1.15,1.15,0,0,0-.58-.93c-.35-.21-.58-.12-.58.23Z"/><path class="cls-1" d="M292.51,142c0,.69.16.82.35.35a1.19,1.19,0,0,0-.06-1.1c-.18-.18-.32.17-.29.75Z"/><path class="cls-1" d="M256.85,142.2c.21.35.45.58.61.58s.26-.23.26-.58a.58.58,0,0,0-.61-.58c-.35,0-.46.25-.26.58Z"/><path class="cls-1" d="M290.13,142.2a1.11,1.11,0,0,0,.58.87c.35.21.44,0,.24-.52-.39-1-.82-1.17-.82-.35Z"/><path class="cls-1" d="M316.18,142.18a1.13,1.13,0,0,0,.58.9c.34.2.58,0,.58-.55s-.24-.9-.58-.9a.53.53,0,0,0-.58.55Z"/><path class="cls-1" d="M340.07,142.78c.64,2.78,2.34,7.24,3.11,8.16a3.18,3.18,0,0,1,.78,1.59.65.65,0,0,0,.58.67c.69,0,.69-1,0-1.42a25,25,0,0,1-2.36-5.12c-1.89-4.92-2.68-6.37-2.11-3.88Z"/><path class="cls-1" d="M338,143.39c.21.75.48,1,.61.61a1.54,1.54,0,0,0-.38-1.36c-.44-.44-.5-.23-.23.75Z"/><path class="cls-1" d="M208.56,143.13c0,1.22,1.45,3.7,2.22,3.7s.69-.14-.06-1a15.53,15.53,0,0,1-1.5-2.17c-.35-.64-.65-.87-.66-.52Z"/><path class="cls-1" d="M261,144.11c.6.81,1.27,1.32,1.53,1.16.61-.37,0-1.2-1.45-2-1.16-.62-1.16-.62-.09.82Z"/><path class="cls-1" d="M263.62,144.11a6.33,6.33,0,0,1,.71,1.79c0,.75,1.48,1.15,1.48.41,0-.36.41-.64.93-.64,1.57,0-.64-2.49-2.37-2.68-1.33-.14-1.39-.05-.75,1.12Zm2,.52c-.18.48-.31.35-.35-.35s.11-.94.29-.75a1.19,1.19,0,0,1,.06,1.1Z"/><path class="cls-1" d="M314.24,143.65c.17.46.43.87.55.87s.23-.41.23-.87-.26-.87-.55-.87-.4.41-.23.87Z"/><path class="cls-1" d="M359.59,143.91c0,.64.27,1.19.58,1.19s.58-.38.58-.84a1.5,1.5,0,0,0-.58-1.19c-.31-.19-.58.2-.58.84Z"/><path class="cls-1" d="M258.3,143.83a1.3,1.3,0,0,0,.58,1,.69.69,0,0,1,.23,1c-.2.36-1,0-1.82-.75l-1.48-1.36,1,1.91a4,4,0,0,1,.63,2.49c-.57.93-3.71,2.36-4.33,2-.33-.2-.58.08-.58.66,0,.81-.35.68-1.74-.67-1-1-1.74-1.42-1.74-1.07a3.46,3.46,0,0,0,1.16,1.65c1.5,1.36,1.5,2.21,0,1.75-.93-.29-1.09-.17-.81.57s-1.22,3.18-2.15,3.18a21.4,21.4,0,0,0-3.47,2c-2.84,1.87-3.15,2-4.11,1.07s-1-.9-1,0a.91.91,0,0,0,.72,1c.38,0,.06.59-.69,1.22-1.33,1.11-1.46,1.12-2.17.14-.42-.58-.92-.86-1.13-.64s-.08.75.32,1.22.46,1,.14,1.16-.87-.06-1.24-.52a2.38,2.38,0,0,0-1.62-.87c-.72,0-.64.2.35.89,1.84,1.29,1.62,2.35-.23,1.14-1.45-.95-1.49-.94-1.12.23.46,1.47-.1,1.54-1.6.21-1.11-1-1.14-1-.73.31.47,1.45.21,1.56-1.58.65-1-.53-1.14-.51-.54.1,1.06,1.09.89,1.55-1,2.53-1.5.8-1.71.8-2,0a1.22,1.22,0,0,0-1.07-.81c-.58,0-.58.13,0,.35,1.5.59.64,1.87-1.68,2.51s-2.6.54-4.2-.64l-1.77-1.3,1.26,1.74c1.6,2.2,1.6,2.44,0,2.06-1.16-.28-1.23-.19-.52.66,1.23,1.49-.23,1.1-2.26-.61-2.2-1.86-2.91-1.57-.87.35a4.78,4.78,0,0,1,1.45,1.94c0,.71-2.84-1.16-4.14-2.72-.58-.69-1-1-1-.61a5.77,5.77,0,0,0,1.71,2.28c2,2,2.2,2.84.46,2.29-1-.31-1.15-.21-.86.54.52,1.36-.18,1.14-2-.64-.87-.83-1.62-1.3-1.62-1a4.9,4.9,0,0,0,1.45,1.92c1.5,1.42,1.45,3-.06,1.74-.46-.38-1-.51-1.19-.3s-.09.38.32.38c1.24,0,.64,1.45-1,2.38-1.45.82-1.76.83-2.89.08-.81-.53-1.27-.61-1.27-.2a.62.62,0,0,0,.58.64c1.14,0,.52,1.59-.87,2.23-.81.37-1.45,1.06-1.45,1.56s-.28.73-.67.49a1.11,1.11,0,0,0-1.31.46c-.87,1.17-5.83,2.78-8.55,2.78a4.68,4.68,0,0,1-3.59-1.33c-.75-.75-1.66-1.22-2.08-1.07s-.62-.09-.41-.67.11-.84-.41-.64-.68-.12-.48-1.22c.35-1.9.77-1.85,2.37.29.73,1,1.72,1.71,2.28,1.68.87-.05.87-.09,0-.32a4.64,4.64,0,0,1-1.88-2.2c-.86-1.79-.85-2.07.09-3.73.56-1,1.34-1.79,1.74-1.79s.72-.22.72-.49.69-.8,1.5-1.16c1.35-.6,1.74-.48,3.76,1.13a13.11,13.11,0,0,1,2.26,2.05,8.08,8.08,0,0,1-.95,1.71c-1.29,2-.73,2.32.91.58,1.29-1.37,1.29-1.42.29-3.1a9.32,9.32,0,0,0-2.69-2.71c-1.68-1-2.19-2.07-1-2.07.41,0,.55-.14.35-.35s-2.37,1.2-4.86,3.1c-6.89,5.25-7.68,6.47-6,9.23,1.3,2.14,4.38,3.62,7.62,3.67a14.35,14.35,0,0,1,3.68.47,1.87,1.87,0,0,0,2.08-.46,44.12,44.12,0,0,1,4.8-3.21c2.14-1.29,3.85-2.51,3.85-2.75s.23-.43.58-.43c.72,0,6.77-3.86,8-5.12s6.76-5.3,7.23-5.3c.74,0,18.23-8.75,19.56-9.79a28.32,28.32,0,0,1,3.73-2.25,30.07,30.07,0,0,0,5-3.47c1.44-1.25,4.43-3.61,6.68-5.3a29.59,29.59,0,0,0,4.95-4.37c.82-1.25.78-1.41-.55-2.63-.75-.69-1.42-1-1.42-.67Z"/><path class="cls-1" d="M215.85,144.81c.17.46.55.87.81.87s.34-.41.17-.87-.55-.87-.81-.87-.34.41-.17.87Z"/><path class="cls-1" d="M268.43,144.52c.21.35.45.58.61.58s.26-.23.26-.58a.58.58,0,0,0-.61-.58c-.35,0-.46.25-.26.58Z"/><path class="cls-1" d="M317.65,144.69c.21.58.53.9.72.72s0-.64-.38-1c-.56-.56-.64-.49-.35.32Z"/><path class="cls-1" d="M334,145c.46,1.27,1.88,3.42,1.88,2.84s-1.69-3.88-2-3.88c-.13,0-.07.46.14,1Z"/><path class="cls-1" d="M335.86,144.17a3.09,3.09,0,0,0,.87,1c.71.6.8.55.5-.26s-1.37-1.35-1.37-.69Z"/><path class="cls-1" d="M357.27,144.58a17.31,17.31,0,0,0,.7,3.13,10.82,10.82,0,0,1,.58,2.75,13.71,13.71,0,0,0,.54,3c.69,2.78,2,3.67,1.49,1-1-5.73-3.32-12.61-3.3-10Z"/><path class="cls-1" d="M245.13,147.21c.68,1.16,1.34,1.82,1.45,1.48.25-.75-1.52-3.59-2.24-3.59-.25,0,.1,1,.78,2.11Z"/><path class="cls-1" d="M249,145.68a.58.58,0,1,0,.58-.58.55.55,0,0,0-.58.58Z"/><path class="cls-1" d="M242.09,146a5.39,5.39,0,0,0,1.16,2c.65.81,1.16,1.19,1.16.87a5.39,5.39,0,0,0-1.16-2c-.65-.81-1.16-1.19-1.16-.87Z"/><path class="cls-1" d="M239.81,146.6c0,.87,2.1,3.48,2.51,3.07.16-.16-.35-1.07-1.1-2s-1.4-1.42-1.41-1.07Z"/><path class="cls-1" d="M247.59,146.83c.21.35.45.58.61.58s.26-.23.26-.58a.58.58,0,0,0-.61-.58c-.35,0-.46.25-.26.58Z"/><path class="cls-1" d="M262.35,146.81a1.13,1.13,0,0,0,.58.9c.34.2.58,0,.58-.55s-.24-.9-.58-.9a.53.53,0,0,0-.58.55Z"/><path class="cls-1" d="M275.08,146.78a1.15,1.15,0,0,0,.58.93c.35.21.58.12.58-.23a1.15,1.15,0,0,0-.58-.93c-.35-.21-.58-.12-.58.23Z"/><path class="cls-1" d="M294.47,146.83c.21.35.45.58.61.58s.26-.23.26-.58a.58.58,0,0,0-.61-.58c-.35,0-.46.25-.26.58Z"/><path class="cls-1" d="M311,147.82a3.51,3.51,0,0,0,.58,1.33c.51.77.58.75.58-.12a1.75,1.75,0,0,0-.58-1.33c-.35-.21-.58-.16-.58.12Z"/><path class="cls-1" d="M273.35,148.51a1.15,1.15,0,0,0,.58.93c.35.21.58.12.58-.23a1.15,1.15,0,0,0-.58-.93c-.35-.21-.58-.12-.58.23Z"/><path class="cls-1" d="M303.44,148.28a3.52,3.52,0,0,0,.58,1.45c.31.46.58.6.58.29a3.52,3.52,0,0,0-.58-1.45c-.31-.46-.58-.6-.58-.29Z"/><path class="cls-1" d="M345.12,148.57c0,1,1.29,3.47,1.79,3.47s.64-.12-.39-2.2c-.92-1.85-1.4-2.29-1.4-1.27Z"/><path class="cls-1" d="M295.63,149.15c.21.35.45.58.61.58s.26-.23.26-.58a.58.58,0,0,0-.61-.58c-.35,0-.46.25-.26.58Z"/><path class="cls-1" d="M336.43,149.09a1.15,1.15,0,0,0,.58.93c.35.21.58.12.58-.23a1.15,1.15,0,0,0-.58-.93c-.35-.21-.58-.12-.58.23Z"/><path class="cls-1" d="M353.39,149.87c.16.4.77,2.72,1.36,5.21s1.37,4.49,1.79,4.49.58-.38.14-1.48a10.59,10.59,0,0,1-.58-3.18,7,7,0,0,0-.55-2.72,11.68,11.68,0,0,1-.84-2c-.17-.58-.57-1-1-1s-.54.32-.38.72Z"/><path class="cls-1" d="M339.91,150.25a10.91,10.91,0,0,0,1.45,3,9.87,9.87,0,0,1,1.45,3.18c0,.46.27.87.58.87.63,0,.42-.75-1.23-4.46-1.06-2.37-2.24-3.72-2.24-2.55Z"/><path class="cls-1" d="M304.6,151.47a1.11,1.11,0,0,0,.58.87c.35.21.44,0,.24-.52-.39-1-.82-1.17-.82-.35Z"/><path class="cls-1" d="M356.51,151.23c-.46.75,1.29,6.6,2,6.6s.27-1.74-.94-5.21c-.38-1.1-.84-1.71-1-1.39Z"/><path class="cls-1" d="M331.8,152a1.15,1.15,0,0,0,.58.93c.35.21.58.12.58-.23a1.15,1.15,0,0,0-.58-.93c-.35-.21-.58-.12-.58.23Z"/><path class="cls-1" d="M246.72,153.23c0,.29.41.55.87.55s.87-.11.87-.23-.41-.38-.87-.55-.87-.06-.87.23Z"/><path class="cls-1" d="M300.61,153.55c0,.69.16.82.35.35a1.19,1.19,0,0,0-.06-1.1c-.18-.18-.32.17-.29.75Z"/><path class="cls-1" d="M264.09,153.43a3.09,3.09,0,0,0,.87,1c.71.6.8.55.5-.26s-1.37-1.35-1.37-.69Z"/><path class="cls-1" d="M324.57,153.78c.21.35.45.58.61.58s.26-.23.26-.58a.58.58,0,0,0-.61-.58c-.35,0-.46.25-.26.58Z"/><path class="cls-1" d="M335.86,153.78a1.11,1.11,0,0,0,.58.87c.35.21.44,0,.24-.52-.39-1-.82-1.17-.82-.35Z"/><path class="cls-1" d="M218.88,154.88,217.5,156l1.33-.34c1.33-.34,2.22-1.2,1.74-1.68-.16-.16-.93.24-1.68.87Z"/><path class="cls-1" d="M245,154.59c0,.12.41.38.87.55s.87.06.87-.23-.41-.55-.87-.55-.87.11-.87.23Z"/><path class="cls-1" d="M261.77,154.88c0,.29.38.66.84.84s.73,0,.51-.55c-.35-.93-1.35-1.14-1.35-.29Z"/><path class="cls-1" d="M289.26,154.94c.21.35.45.58.61.58s.26-.23.26-.58a.58.58,0,0,0-.61-.58c-.35,0-.46.25-.26.58Z"/><path class="cls-1" d="M296.56,155.29c0,.69.16.82.35.35a1.19,1.19,0,0,0-.06-1.1c-.18-.18-.32.17-.29.75Z"/><path class="cls-1" d="M294.18,155.75a1.59,1.59,0,0,0,.58,1.22c.31.19.58-.06.58-.52a1.59,1.59,0,0,0-.58-1.22c-.31-.19-.58.06-.58.52Z"/><path class="cls-1" d="M238.33,156.1c.21.35.45.58.61.58s.26-.23.26-.58a.58.58,0,0,0-.61-.58c-.35,0-.46.25-.26.58Z"/><path class="cls-1" d="M260,156a1.15,1.15,0,0,0,.58.93c.35.21.58.12.58-.23a1.15,1.15,0,0,0-.58-.93c-.35-.21-.58-.12-.58.23Z"/><path class="cls-1" d="M331.8,156.12a4.33,4.33,0,0,0,.83,2c1.12,1.48,1.14.87,0-1.22-.49-.93-.88-1.28-.88-.78Z"/><path class="cls-1" d="M236.31,156.62a2.56,2.56,0,0,0,1,1.3c.87.71.89.67.28-.49-.71-1.33-1.23-1.68-1.23-.81Z"/><path class="cls-1" d="M280.29,156.67a.58.58,0,0,0,.61.58c.35,0,.46-.25.26-.58s-.45-.58-.61-.58-.26.23-.26.58Z"/><path class="cls-1" d="M215.93,157.08A1.19,1.19,0,0,0,217,157c.18-.18-.17-.32-.75-.29s-.82.16-.35.35Z"/><path class="cls-1" d="M242.38,157.25c.21.35.45.58.61.58s.26-.23.26-.58a.58.58,0,0,0-.61-.58c-.35,0-.46.25-.26.58Z"/><path class="cls-1" d="M278.09,157.8c.39.64.77,1.05.87,1,.35-.35-.52-2.08-1-2.08-.29,0-.22.49.17,1.13Z"/><path class="cls-1" d="M283.56,157.54c.17.46.59.87.9.87s.3-.35-.12-.87a3.17,3.17,0,0,0-.9-.87c-.11,0-.05.41.12.87Z"/><path class="cls-1" d="M297.08,157.25a1.11,1.11,0,0,0,.58.87c.35.21.44,0,.24-.52-.39-1-.82-1.17-.82-.35Z"/><path class="cls-1" d="M334.7,157.22a1.13,1.13,0,0,0,.58.9c.34.2.58,0,.58-.55s-.24-.9-.58-.9a.53.53,0,0,0-.58.55Z"/><path class="cls-1" d="M240.36,157.83a.58.58,0,0,0,.61.58c.35,0,.46-.25.26-.58s-.45-.58-.61-.58-.26.23-.26.58Z"/><path class="cls-1" d="M290.71,157.83a.58.58,0,0,0,.61.58c.35,0,.46-.25.26-.58s-.45-.58-.61-.58-.26.23-.26.58Z"/><path class="cls-1" d="M213.44,158.55c-1.5.87-4.16,3.33-3.59,3.33.75,0,4.42-2.57,4.7-3.3s.34-.87-1.11,0Z"/><path class="cls-1" d="M276.07,159c.16.64.53,1.19.81,1.19.79,0,.64-.92-.29-1.7-.67-.56-.76-.48-.52.51Z"/><path class="cls-1" d="M281.45,158.24a4.15,4.15,0,0,0,.84,1.65c.8,1.08.82,1.07.5-.2s-1.34-2.37-1.34-1.45Z"/><path class="cls-1" d="M286.66,159a.58.58,0,0,0,.61.58c.35,0,.46-.25.26-.58s-.45-.58-.61-.58-.26.23-.26.58Z"/><path class="cls-1" d="M263.51,159.57a1.11,1.11,0,0,0,.58.87c.35.21.44,0,.24-.52-.39-1-.82-1.17-.82-.35Z"/><path class="cls-1" d="M274.33,160.12c.16.64.53,1.19.81,1.19.79,0,.64-.92-.29-1.7-.67-.56-.76-.48-.52.51Z"/><path class="cls-1" d="M252.51,160.15a.58.58,0,0,0,.61.58c.35,0,.46-.25.26-.58s-.45-.58-.61-.58-.26.23-.26.58Z"/><path class="cls-1" d="M291.29,160.15a.58.58,0,0,0,.61.58c.35,0,.46-.25.26-.58s-.45-.58-.61-.58-.26.23-.26.58Z"/><path class="cls-1" d="M223.57,161.25c0,.81,2.22,3.22,2.6,2.84.19-.19-.32-1-1.13-1.82s-1.48-1.27-1.48-1Z"/><path class="cls-1" d="M281.16,161.88c.21.35.45.58.61.58s.26-.23.26-.58a.58.58,0,0,0-.61-.58c-.35,0-.46.25-.26.58Z"/><path class="cls-1" d="M337,162.11a1.59,1.59,0,0,0,.58,1.22c.31.19.58-.06.58-.52a1.59,1.59,0,0,0-.58-1.22c-.31-.19-.58.06-.58.52Z"/><path class="cls-1" d="M207.6,163.31c-.58.44-.78.85-.43.86a2.21,2.21,0,0,0,1.37-.84c.9-1.11.51-1.12-.94,0Z"/><path class="cls-1" d="M257.14,163a1.11,1.11,0,0,0,.58.87c.35.21.44,0,.24-.52-.39-1-.82-1.17-.82-.35Z"/><path class="cls-1" d="M334.7,163.27a1.59,1.59,0,0,0,.58,1.22c.31.19.58-.06.58-.52a1.59,1.59,0,0,0-.58-1.22c-.31-.19-.58.06-.58.52Z"/><path class="cls-1" d="M217.79,164.14a1.15,1.15,0,0,0,.58.93c.35.21.58.12.58-.23a1.15,1.15,0,0,0-.58-.93c-.35-.21-.58-.12-.58.23Z"/><path class="cls-1" d="M327.81,164.55c0,.69.16.82.35.35a1.19,1.19,0,0,0-.06-1.1c-.18-.18-.32.17-.29.75Z"/><path class="cls-1" d="M333,164.55c0,.69.16.82.35.35a1.19,1.19,0,0,0-.06-1.1c-.18-.18-.32.17-.29.75Z"/><path class="cls-1" d="M224.15,165.65a4.65,4.65,0,0,0,1.91,1.45c.32,0,0-.64-.75-1.45a4.65,4.65,0,0,0-1.91-1.45c-.32,0,0,.64.75,1.45Z"/><path class="cls-1" d="M305.18,164.78a.58.58,0,0,0,.61.58c.35,0,.46-.25.26-.58s-.45-.58-.61-.58-.26.23-.26.58Z"/><path class="cls-1" d="M338.23,165.12c0,.69.16.82.35.35a1.19,1.19,0,0,0-.06-1.1c-.18-.18-.32.17-.29.75Z"/><path class="cls-1" d="M203,166c-3,1.56-7.58,5.11-6.66,5.11s6-3.43,6.29-4.17a1.07,1.07,0,0,1,.86-.49,4.55,4.55,0,0,0,1.77-.86c1.64-1.24.46-1-2.26.41Z"/><path class="cls-1" d="M261.67,166.34c1.52,2.2,2.87,3.27,2,1.56a9.71,9.71,0,0,0-1.92-2.26l-1.33-1.16,1.28,1.85Z"/><path class="cls-1" d="M319.94,165.36c.21.35.45.58.61.58s.26-.23.26-.58a.58.58,0,0,0-.61-.58c-.35,0-.46.25-.26.58Z"/><path class="cls-1" d="M336.09,166.8a5.46,5.46,0,0,0,1,2.32c.45.41.52.06.23-1.16a5.46,5.46,0,0,0-1-2.32c-.45-.41-.52-.06-.23,1.16Z"/><path class="cls-1" d="M328.33,166.46a1.15,1.15,0,0,0,.58.93c.35.21.58.12.58-.23a1.15,1.15,0,0,0-.58-.93c-.35-.21-.58-.12-.58.23Z"/><path class="cls-1" d="M220.1,166.86c0,.69,1.8,2.05,2.43,1.84.36-.12,0-.64-.9-1.2s-1.53-.83-1.53-.64Z"/><path class="cls-1" d="M338.75,167.35c0,.52.24.9.58.9a.53.53,0,0,0,.58-.55,1.13,1.13,0,0,0-.58-.9c-.34-.2-.58,0-.58.55Z"/><path class="cls-1" d="M249,167.61a1.15,1.15,0,0,0,.58.93c.35.21.58.12.58-.23a1.15,1.15,0,0,0-.58-.93c-.35-.21-.58-.12-.58.23Z"/><path class="cls-1" d="M254.83,167.61a1.15,1.15,0,0,0,.58.93c.35.21.58.12.58-.23a1.15,1.15,0,0,0-.58-.93c-.35-.21-.58-.12-.58.23Z"/><path class="cls-1" d="M260,167.5c0,.75,1.58,2.82,1.91,2.49.16-.16-.2-.9-.81-1.65s-1.1-1.13-1.1-.84Z"/><path class="cls-1" d="M302.29,169.41a.58.58,0,0,0,.61.58c.35,0,.46-.25.26-.58s-.45-.58-.61-.58-.26.23-.26.58Z"/><path class="cls-1" d="M214.31,169.87c0,.69,1.06,1.54,1.45,1.16.15-.15-.12-.63-.58-1s-.87-.49-.87-.14Z"/><path class="cls-1" d="M256,169.64a3.09,3.09,0,0,0,.87,1c.71.6.8.55.5-.26S256,169,256,169.64Z"/><path class="cls-1" d="M327.23,170.33c0,.69.16.82.35.35a1.19,1.19,0,0,0-.06-1.1c-.18-.18-.32.17-.29.75Z"/><path class="cls-1" d="M300,170.56a.58.58,0,0,0,.61.58c.35,0,.46-.25.26-.58s-.45-.58-.61-.58-.26.23-.26.58Z"/><path class="cls-1" d="M252.63,172.85c1.06,1.27,2,2,2.12,1.71.23-.66-2.69-4-3.5-4-.29,0,.33,1,1.39,2.29Z"/><path class="cls-1" d="M254.78,171.66c.69,1.27,1.79,2.14,1.76,1.39s-1.47-2.49-1.95-2.49c-.21,0-.12.52.19,1.1Z"/><path class="cls-1" d="M249,171.58a2.41,2.41,0,0,0,1,1.39c1,.74,1,.72.17-.38l-1-1.39c-.1-.13-.17,0-.17.38Z"/><path class="cls-1" d="M271.9,172.3c.21.35.45.58.61.58s.26-.23.26-.58a.58.58,0,0,0-.61-.58c-.35,0-.46.25-.26.58Z"/><path class="cls-1" d="M276.82,172.88a.58.58,0,0,0,.61.58c.35,0,.46-.25.26-.58s-.45-.58-.61-.58-.26.23-.26.58Z"/><path class="cls-1" d="M318.49,173.46a.58.58,0,0,0,.61.58c.35,0,.46-.25.26-.58s-.45-.58-.61-.58-.26.23-.26.58Z"/><path class="cls-1" d="M324.64,176.18c1,2.43,2,3.7,2,2.6,0-.93-1.94-4.71-2.43-4.73-.22,0,0,1,.48,2.12Z"/><path class="cls-1" d="M205.63,175.46c0,.52.24.9.58.9a.53.53,0,0,0,.58-.55,1.13,1.13,0,0,0-.58-.9c-.34-.2-.58,0-.58.55Z"/><path class="cls-1" d="M303.5,176.35c.83,1.74,1.1,2.08,1.1,1.39a4,4,0,0,0-.9-1.71c-.86-1.08-.87-1.07-.21.32Z"/><path class="cls-1" d="M316.76,175.95c0,.75,2.89,6.72,3.41,7,1.13.7.67-1.2-.81-3.4a10.54,10.54,0,0,1-1.45-2.66,1.11,1.11,0,0,0-.58-.87c-.35-.21-.58-.25-.58-.12Z"/><path class="cls-1" d="M279.71,176.87a1.15,1.15,0,0,0,.58.93c.35.21.58.12.58-.23a1.15,1.15,0,0,0-.58-.93c-.35-.21-.58-.12-.58.23Z"/><path class="cls-1" d="M286.37,176.93c-.2.33-.09.58.26.58a.58.58,0,0,0,.61-.58c0-.35-.1-.58-.26-.58s-.4.23-.61.58Z"/><path class="cls-1" d="M300.26,176.93c.21.35.45.58.61.58s.26-.23.26-.58a.58.58,0,0,0-.61-.58c-.35,0-.46.25-.26.58Z"/><path class="cls-1" d="M312.27,178.38c.33,1.1.86,2,1.16,2s.38-.43.14-1-.53-1.45-.69-2-.49-1-.75-1-.19.93.14,2Z"/><path class="cls-1" d="M202.74,177.51a.58.58,0,0,0,.61.58c.35,0,.46-.25.26-.58s-.45-.58-.61-.58-.26.23-.26.58Z"/><path class="cls-1" d="M281.62,179.62c.24,1-.12,1.43-2,2.26-4.05,1.83-4.46,5.19-.46,3.8a11.78,11.78,0,0,1,3.18-.65c1.68,0,1.77-.62.23-1.58-.75-.47-1.16-.49-1.3-.07s-.69.52-1.33.41c-.84-.15-.35-.61,2-1.82,1.68-.88,3.43-1.5,3.82-1.36s.72-.09.72-.55c0-1-.64-1-2.26-.15-1,.54-1.38.46-2.05-.43-.82-1.07-.83-1.07-.55.14Z"/><path class="cls-1" d="M310.39,179.59c0,1.1,1.43,4.86,1.85,4.86.25,0,.46.67.46,1.42a2.49,2.49,0,0,0,.64,1.81c1.31.8,1.22-.56-.24-3.4a16.58,16.58,0,0,1-1.55-3.7,1.28,1.28,0,0,0-.58-1c-.35-.21-.58-.19-.58.06Z"/><path class="cls-1" d="M231.1,180.35a1.15,1.15,0,0,0,.58.93c.35.21.58.12.58-.23a1.15,1.15,0,0,0-.58-.93c-.35-.21-.58-.12-.58.23Z"/><path class="cls-1" d="M308.07,181.27c0,.46.27.87.58.87s.58-.41.58-.87-.27-.87-.58-.87-.58.41-.58.87Z"/><path class="cls-1" d="M291.7,182.37c.56.75,1.12,1.31,1.22,1.22.36-.34-1.1-2.61-1.68-2.61-.31,0-.1.64.46,1.39Z"/><path class="cls-1" d="M289,181.85a4.09,4.09,0,0,0,.84,1.71c.47.64.84.88.84.55a4.09,4.09,0,0,0-.84-1.71c-.47-.64-.84-.88-.84-.55Z"/><path class="cls-1" d="M294.18,182.14a.58.58,0,0,0,.61.58c.35,0,.46-.25.26-.58s-.45-.58-.61-.58-.26.23-.26.58Z"/><path class="cls-1" d="M305.76,182.08a1.15,1.15,0,0,0,.58.93c.35.21.58.12.58-.23a1.15,1.15,0,0,0-.58-.93c-.35-.21-.58-.12-.58.23Z"/><path class="cls-1" d="M286.65,182.49c0,.64,3.37,5.44,3.83,5.44s-1.32-2.84-2.75-4.69c-.58-.75-1.08-1.1-1.08-.75Z"/><path class="cls-1" d="M303.44,183.24a1.15,1.15,0,0,0,.58.93c.35.21.58.12.58-.23A1.15,1.15,0,0,0,304,183c-.35-.21-.58-.12-.58.23Z"/><path class="cls-1" d="M285,183.76a2.84,2.84,0,0,0,.84,1.62c1.1,1.1,1.12.17,0-1.27-.53-.69-.84-.82-.86-.35Z"/><path class="cls-1" d="M301.45,184.05c.21.58.53.9.72.72s0-.64-.38-1c-.56-.56-.64-.49-.35.32Z"/><path class="cls-1" d="M294.42,186.13c.93,1.79,2.08,2.85,2.08,1.91a2.29,2.29,0,0,0-.87-1.27,2.4,2.4,0,0,1-.87-1.5c0-.46-.26-.81-.61-.81s-.25.69.27,1.68Z"/><path class="cls-1" d="M297.08,185.44a3.51,3.51,0,0,0,.58,1.33c.51.77.58.75.58-.12a1.75,1.75,0,0,0-.58-1.33c-.35-.21-.58-.16-.58.12Z"/><path class="cls-1" d="M193.77,186.77c.21.35.45.58.61.58s.26-.23.26-.58a.58.58,0,0,0-.61-.58c-.35,0-.46.25-.26.58Z"/><path class="cls-1" d="M257.72,186.89a1.79,1.79,0,0,0,.58,1.34c.74.46.74-.3,0-1.46-.5-.77-.56-.75-.56.12Z"/><path class="cls-1" d="M263.51,188.51c.35.64.77,1.16.93,1.16s0-.52-.35-1.16-.77-1.16-.93-1.16,0,.52.35,1.16Z"/><path class="cls-1" d="M215.85,188.8c.17.46.59.87.9.87s.3-.35-.12-.87a3.17,3.17,0,0,0-.9-.87c-.11,0-.05.41.12.87Z"/><path class="cls-1" d="M252.25,189.84c.21.58.53.9.72.72s0-.64-.38-1c-.56-.56-.64-.49-.35.32Z"/><path class="cls-1" d="M261.57,190c.17.46.43.87.55.87s.23-.41.23-.87-.26-.87-.55-.87-.4.41-.23.87Z"/><path class="cls-1" d="M289,190.59c0,.69.16.82.35.35a1.19,1.19,0,0,0-.06-1.1c-.18-.18-.32.17-.29.75Z"/><path class="cls-1" d="M250.25,191.17c0,.69.16.82.35.35a1.19,1.19,0,0,0-.06-1.1c-.18-.18-.32.17-.29.75Z"/><path class="cls-1" d="M257.14,190.71c0,.69,1.06,1.54,1.45,1.16.15-.15-.12-.63-.58-1s-.87-.49-.87-.14Z"/><path class="cls-1" d="M294.18,191.37a1.13,1.13,0,0,0,.58.9c.34.2.58,0,.58-.55s-.24-.9-.58-.9a.53.53,0,0,0-.58.55Z"/><path class="cls-1" d="M195.21,192.24a1.54,1.54,0,0,0,.64,1.22,6.34,6.34,0,0,1,1.45,2.34c.45,1.1,1.19,2,1.68,2,.77,0,.77-.23,0-2s-2.83-4.4-3.52-4.4c-.16,0-.29.38-.29.84Z"/><path class="cls-1" d="M255.78,192.27c.17.46.43.87.55.87s.23-.41.23-.87-.26-.87-.55-.87-.4.41-.23.87Z"/><path class="cls-1" d="M199,194.29c.21.35.45.58.61.58s.26-.23.26-.58a.58.58,0,0,0-.61-.58c-.35,0-.46.25-.26.58Z"/><path class="cls-1" d="M285.82,194.47c.21.58.53.9.72.72s0-.64-.38-1c-.56-.56-.64-.49-.35.32Z"/><path class="cls-1" d="M207.43,195.8c0,.69.16.82.35.35a1.19,1.19,0,0,0-.06-1.1c-.18-.18-.32.17-.29.75Z"/><path class="cls-1" d="M245.28,196c-1.08.49-1.07.52.14.55.69,0,1.3-.24,1.3-.55s-.06-.57-.14-.55-.67.26-1.3.55Z"/><path class="cls-1" d="M194.63,198.78c-1.1,1.08-1.17,1.27-.29.79,2.14-1.16,2.71-1.67,2.2-2-.26-.14-1.1.37-1.91,1.16Z"/><path class="cls-1" d="M201.58,197.59c0,.87,3.51,6,4.11,6,.28,0,.52-.41.52-.87s-.27-.87-.58-.87-1.35-1.07-2.32-2.4-1.74-2.14-1.74-1.82Z"/><path class="cls-1" d="M239.78,198.35c0,.32.38.58.84.58a1.5,1.5,0,0,0,1.19-.58c.19-.31-.2-.58-.84-.58s-1.19.27-1.19.58Z"/><path class="cls-1" d="M276,200.52a3.29,3.29,0,0,0,.84,1.62c.81.5.61-.55-.34-1.83-.8-1.08-.81-1.07-.5.2Z"/><path class="cls-1" d="M193.19,201.62c-1.62.73-1.64.77-.29.64a3.13,3.13,0,0,1,2.32.75c.5.52.71.64.49.29a5.8,5.8,0,0,1-.58-1.53c-.18-.8-.43-.82-1.94-.14Z"/><path class="cls-1" d="M232.34,202c.41.93.83,1.34,1,1a2.07,2.07,0,0,0-.72-1.65c-.9-.9-.92-.87-.23.69Z"/><path class="cls-1" d="M234.28,201.24c.21.35.45.58.61.58s.26-.23.26-.58a.58.58,0,0,0-.61-.58c-.35,0-.46.25-.26.58Z"/><path class="cls-1" d="M273.93,201.53a5.39,5.39,0,0,0,1.16,2c.65.81,1.16,1.19,1.16.87a5.39,5.39,0,0,0-1.16-2c-.65-.81-1.16-1.19-1.16-.87Z"/><path class="cls-1" d="M259.8,202.77c-.3.82-.2.84.67.17l1.24-1c.13-.1-.14-.17-.67-.17a1.49,1.49,0,0,0-1.24,1Z"/><path class="cls-1" d="M190,202.63a6.83,6.83,0,0,0,1.5,2c1.17,1.22,1.37,1.29.89.35-.64-1.27-2.4-3-2.4-2.32Z"/><path class="cls-1" d="M202.45,203c.21.35.45.58.61.58s.26-.23.26-.58a.58.58,0,0,0-.61-.58c-.35,0-.46.25-.26.58Z"/><path class="cls-1" d="M225.89,204.08a2.06,2.06,0,0,0,.81,1.19c.66.54.75.43.5-.55-.3-1.16-1.31-1.65-1.31-.64Z"/><path class="cls-1" d="M211.42,204.71c-.46.31-.6.58-.29.58a3.52,3.52,0,0,0,1.45-.58c.46-.31.6-.58.29-.58a3.52,3.52,0,0,0-1.45.58Z"/><path class="cls-1" d="M255.2,205.15a3.29,3.29,0,0,0,.84,1.62c.81.5.61-.55-.34-1.83-.8-1.08-.81-1.07-.5.2Z"/><path class="cls-1" d="M260.33,204.71c.21.35.45.58.61.58s.26-.23.26-.58a.58.58,0,0,0-.61-.58c-.35,0-.46.25-.26.58Z"/><path class="cls-1" d="M273.06,204.71c.21.35.45.58.61.58s.26-.23.26-.58a.58.58,0,0,0-.61-.58c-.35,0-.46.25-.26.58Z"/><path class="cls-1" d="M251.36,206.16c0,.81,1,2.34,1.32,2s-.06-.78-.52-1.42-.81-.9-.8-.61Z"/><path class="cls-1" d="M253.67,206.39a1.15,1.15,0,0,0,.58.93c.35.21.58.12.58-.23a1.15,1.15,0,0,0-.58-.93c-.35-.21-.58-.12-.58.23Z"/><path class="cls-1" d="M221.26,207.52c.38.75.85,1.2,1,1s-.12-.8-.69-1.36c-1-.95-1-.93-.35.35Z"/><path class="cls-1" d="M246.15,207a1.15,1.15,0,0,0,.58.93c.35.21.58.12.58-.23a1.15,1.15,0,0,0-.58-.93c-.35-.21-.58-.12-.58.23Z"/><path class="cls-1" d="M247.62,209.52c.21.58.53.9.72.72s0-.64-.38-1c-.56-.56-.64-.49-.35.32Z"/><path class="cls-1" d="M204.47,211.66a1.11,1.11,0,0,0,.58.87c.35.21.44,0,.24-.52-.39-1-.82-1.17-.82-.35Z"/><path class="cls-1" d="M226.18,212.25c-1.27.6-1.92,1.09-1.45,1.09a9.22,9.22,0,0,0,2.89-1.1c2.58-1.41,1.56-1.4-1.45,0Z"/><path class="cls-1" d="M227.91,215.74a12.19,12.19,0,0,1-3.56,1.1c-1.2,0-1.19.09.26,1.77a5.57,5.57,0,0,0,2.05,1.74c.31,0,.06-.55-.55-1.24s-.84-1.34-.52-1.46c2.14-.78,6.2-3,5.5-3a11.87,11.87,0,0,0-3.18,1.07Z"/><path class="cls-1" d="M235.15,215.07a1.15,1.15,0,0,0,.58.93c.35.21.58.12.58-.23a1.15,1.15,0,0,0-.58-.93c-.35-.21-.58-.12-.58.23Z"/><path class="cls-1" d="M233.73,216.46c.21.58.53.9.72.72s0-.64-.38-1c-.56-.56-.64-.49-.35.32Z"/></svg>