<svg xmlns="http://www.w3.org/2000/svg" viewBox="0 0 411 236"><defs><style>.cls-1{isolation:isolate;}.cls-2{mix-blend-mode:multiply;}.cls-3{fill:#00614b;}</style></defs><title>Have-and-Hold</title><g class="cls-1"><g id="Layer_1" data-name="Layer 1"><g class="cls-2"><path class="cls-3" d="M211.8,121.93H195.44v-9.84h-9.36V96.21h9.36V86.37H211.8v9.84h9.36v15.88H211.8Zm-12.36-4h8.36v-9.84h9.36v-7.88H207.8V90.37h-8.36v9.84h-9.36v7.88h9.36Z"/></g><g class="cls-2"><path class="cls-3" d="M98.38,40.67l-9.48-.2L93.5,35l25,.56-4.8,5.68-6.84-.28-.52,17.68,5.88,2.6-8.84,4.6-5.64-3.36Z"/><path class="cls-3" d="M137.7,66.35l-13.56-4.56.12-18.52,15.8-8.36L154,40l-.28,19.36Zm6.52-5.6.24-16.32L134,40.92l-.44,16.44Z"/><path class="cls-3" d="M187.7,52.43l-.12,6.16,5.88,2.6-8.84,4.6L179,62.43l.48-19.84-5.32-3.4,8-4.24,6.08,4L188,48h11l.12-5.64-5.72-3.52,8.56-3.64,5.68,4.12-.4,19.64,5.36,2.84-8.12,4.08-6-3.6.2-9.8Z"/><path class="cls-3" d="M229.26,34.52l14.12,3.8-.4,20.6,5.36,2.84-8.12,4.08-6-3.6.12-8.12h-8.72l-3.2,4.72,6.08,2.6L221.78,66l-7.68-3.84,15.56-20.72L220.06,39Zm-.8,15.56h6.2l.2-8.2Z"/><path class="cls-3" d="M272.14,59.91l.44-17.32-5.28-3.4L275.38,35l5.92,3.88L280.81,59l-13.08,6.6-12.52-4.84.56-18.2-5.32-3.4,8-4.24,6,3.88L264,56.91Z"/><path class="cls-3" d="M293.94,40.67l-7.4-.28,7.32-5.12,22.88.72-6.28,5.6-8-.32-.16,6.36h9.88l-3.16,4.8h-7l-.12,6.16,13,2.28-8.84,4.84-12.76-2.4Z"/></g><g class="cls-2"><path class="cls-3" d="M98.34,145.47l-9.48-.2,4.6-5.52,25,.56-4.8,5.68-6.84-.28-.52,17.68,5.88,2.6-8.84,4.6-5.64-3.36Z"/><path class="cls-3" d="M137.66,171.14l-13.56-4.56.12-18.52,15.8-8.36,14,5.12-.28,19.36Zm6.52-5.6.24-16.32L134,145.71l-.44,16.44Z"/><path class="cls-3" d="M187.66,157.22l-.12,6.16,5.88,2.6-8.84,4.6-5.64-3.36.48-19.84L174.1,144l8-4.24,6.08,4-.16,9h11l.12-5.64-5.72-3.52,8.56-3.64,5.68,4.12-.4,19.64,5.36,2.84-8.12,4.08-6-3.6.2-9.8Z"/><path class="cls-3" d="M232.22,171.14l-13.56-4.56.12-18.52,15.8-8.36,14,5.12-.28,19.36Zm6.52-5.6.24-16.32-10.44-3.52-.44,16.44Z"/><path class="cls-3" d="M269.3,163.3l13.16,1.56-6.2,5.88-15.72-2.4.8-21L256,144l8-4.24,6.08,4Z"/><path class="cls-3" d="M297.94,171.06l-12.28-4,4.4-3.24-2.32-14.28,6.28-2.72-10.88-2.52,8.6-5.6,23.8,5.6-.36,20.32Zm8.2-5.52.36-16-10.32-2.28,2,14.52-3,1.76Z"/></g></g></g></svg>